<svg xmlns="http://www.w3.org/2000/svg" xmlns:xlink="http://www.w3.org/1999/xlink" preserveAspectRatio="xMidYMid" width="277.532" height="60.813" viewBox="0 0 277.532 60.813">
  <defs>
    <style>
      .cls-1 {
        fill: #000;
        fill-rule: evenodd;
      }
    </style>
  </defs>
  <path d="M277.439,42.119 C277.199,43.752 276.695,45.089 275.927,46.133 C275.159,47.177 274.223,48.120 273.119,48.959 L264.443,55.619 L275.747,55.619 L275.099,60.371 L257.315,60.371 L258.107,54.647 L269.267,45.755 C269.555,45.516 269.849,45.269 270.149,45.017 C270.449,44.765 270.725,44.495 270.977,44.207 C271.229,43.919 271.451,43.608 271.643,43.271 C271.835,42.936 271.955,42.576 272.003,42.191 C272.123,41.327 271.907,40.650 271.355,40.157 C270.803,39.666 270.107,39.419 269.267,39.419 C268.259,39.419 267.431,39.732 266.783,40.355 C266.135,40.980 265.715,41.748 265.523,42.659 L260.159,42.263 C260.423,40.944 260.867,39.797 261.491,38.825 C262.115,37.853 262.865,37.043 263.741,36.395 C264.617,35.747 265.613,35.261 266.729,34.937 C267.845,34.613 269.027,34.451 270.275,34.451 C271.427,34.451 272.483,34.613 273.443,34.937 C274.403,35.261 275.207,35.742 275.855,36.377 C276.503,37.014 276.971,37.812 277.259,38.771 C277.547,39.732 277.607,40.848 277.439,42.119 ZM257.153,45.701 C256.877,46.457 256.553,47.172 256.181,47.843 C255.809,48.516 255.395,49.157 254.939,49.769 C254.483,50.381 254.015,51.011 253.535,51.659 L246.731,60.371 L240.143,60.371 L247.379,51.263 C247.067,51.335 246.767,51.396 246.479,51.443 C246.191,51.492 245.891,51.515 245.579,51.515 C244.379,51.515 243.317,51.299 242.393,50.867 C241.469,50.435 240.713,49.848 240.125,49.103 C239.537,48.360 239.123,47.478 238.883,46.457 C238.643,45.438 238.607,44.351 238.775,43.199 C238.943,41.880 239.351,40.686 239.999,39.617 C240.647,38.550 241.451,37.632 242.411,36.863 C243.371,36.096 244.457,35.502 245.669,35.081 C246.881,34.662 248.159,34.451 249.503,34.451 C250.823,34.451 252.035,34.662 253.139,35.081 C254.243,35.502 255.167,36.096 255.911,36.863 C256.655,37.632 257.195,38.550 257.531,39.617 C257.867,40.686 257.951,41.880 257.783,43.199 C257.639,44.112 257.429,44.945 257.153,45.701 ZM251.591,40.553 C250.919,39.797 249.983,39.419 248.783,39.419 C247.559,39.419 246.521,39.797 245.669,40.553 C244.817,41.309 244.307,42.263 244.139,43.415 C243.971,44.567 244.217,45.521 244.877,46.277 C245.537,47.033 246.467,47.411 247.667,47.411 C248.891,47.411 249.935,47.033 250.799,46.277 C251.663,45.521 252.179,44.567 252.347,43.415 C252.515,42.263 252.263,41.309 251.591,40.553 ZM225.096,60.371 L227.796,40.931 L222.072,45.431 L219.516,41.903 L228.804,34.883 L233.844,34.883 L230.280,60.371 L225.096,60.371 ZM226.540,16.385 C226.540,17.625 225.940,18.245 224.740,18.245 L221.460,18.245 L221.160,16.865 C222.600,16.918 223.626,16.945 224.240,16.945 C224.786,16.945 225.060,16.638 225.060,16.025 L225.060,3.085 L219.740,3.085 L219.740,1.685 L229.780,1.685 L229.780,3.085 L226.540,3.085 L226.540,16.385 ZM216.520,16.585 C216.520,17.718 215.933,18.285 214.760,18.285 L212.660,18.285 L212.340,16.885 C213.246,16.938 213.886,16.965 214.260,16.965 C214.780,16.965 215.040,16.712 215.040,16.205 L215.040,11.165 C213.560,11.619 212.526,11.925 211.940,12.085 L211.580,10.725 C212.833,10.445 213.986,10.139 215.040,9.805 L215.040,5.185 L211.900,5.185 L211.900,3.805 L215.040,3.805 L215.040,0.185 L216.520,0.185 L216.520,3.805 L219.120,3.805 L219.120,5.185 L216.520,5.185 L216.520,9.285 C217.426,8.925 218.380,8.512 219.380,8.045 L219.380,9.485 C218.566,9.845 217.613,10.232 216.520,10.645 L216.520,16.585 ZM215.088,36.863 C215.831,37.632 216.371,38.550 216.708,39.617 C217.044,40.686 217.127,41.880 216.960,43.199 C216.816,44.112 216.605,44.945 216.330,45.701 C216.054,46.457 215.730,47.172 215.358,47.843 C214.985,48.516 214.571,49.157 214.116,49.769 C213.660,50.381 213.192,51.011 212.712,51.659 L205.908,60.371 L199.320,60.371 L206.556,51.263 C206.244,51.335 205.944,51.396 205.656,51.443 C205.368,51.492 205.067,51.515 204.756,51.515 C203.555,51.515 202.493,51.299 201.570,50.867 C200.646,50.435 199.890,49.848 199.302,49.103 C198.713,48.360 198.299,47.478 198.060,46.457 C197.820,45.438 197.784,44.351 197.952,43.199 C198.119,41.880 198.528,40.686 199.176,39.617 C199.824,38.550 200.628,37.632 201.588,36.863 C202.547,36.096 203.634,35.502 204.846,35.081 C206.057,34.662 207.335,34.451 208.680,34.451 C209.999,34.451 211.212,34.662 212.316,35.081 C213.419,35.502 214.344,36.096 215.088,36.863 ZM210.768,40.553 C210.096,39.797 209.160,39.419 207.960,39.419 C206.736,39.419 205.697,39.797 204.846,40.553 C203.994,41.309 203.483,42.263 203.316,43.415 C203.148,44.567 203.393,45.521 204.054,46.277 C204.714,47.033 205.643,47.411 206.844,47.411 C208.068,47.411 209.112,47.033 209.976,46.277 C210.840,45.521 211.356,44.567 211.524,43.415 C211.691,42.263 211.439,41.309 210.768,40.553 ZM209.840,18.565 C208.106,17.712 206.693,16.765 205.600,15.725 C204.413,16.938 202.993,17.905 201.340,18.625 L200.560,17.405 C202.186,16.752 203.566,15.879 204.700,14.785 C203.646,13.599 202.886,12.272 202.420,10.805 C201.393,13.579 199.926,16.059 198.020,18.245 L197.100,17.085 C198.980,15.059 200.406,12.605 201.380,9.725 C201.766,8.552 202.086,7.299 202.340,5.965 L199.000,5.965 C199.400,4.059 199.700,2.405 199.900,1.005 L201.240,1.145 C201.053,2.265 200.840,3.432 200.600,4.645 L202.580,4.645 C202.780,3.299 202.946,1.765 203.080,0.045 L204.500,0.045 C204.326,1.845 204.133,3.379 203.920,4.645 L210.100,4.645 L210.100,5.965 L203.680,5.965 C203.440,7.112 203.233,8.019 203.060,8.685 L209.080,8.685 L209.080,9.925 C208.413,11.805 207.546,13.405 206.480,14.725 C207.600,15.699 208.980,16.558 210.620,17.305 L209.840,18.565 ZM207.660,9.965 L203.420,9.965 C203.820,11.405 204.533,12.699 205.560,13.845 C206.480,12.712 207.180,11.419 207.660,9.965 ZM205.960,0.725 L207.080,0.025 C208.186,1.212 209.020,2.232 209.580,3.085 L208.440,3.865 C207.880,2.972 207.053,1.925 205.960,0.725 ZM196.420,16.405 C196.420,17.632 195.826,18.245 194.640,18.245 L192.840,18.245 L192.540,16.865 C193.166,16.932 193.700,16.965 194.140,16.965 C194.700,16.965 194.980,16.658 194.980,16.045 L194.980,11.365 C194.220,11.659 193.360,11.945 192.400,12.225 L192.040,10.805 C193.093,10.552 194.073,10.265 194.980,9.945 L194.980,5.185 L192.360,5.185 L192.360,3.805 L194.980,3.805 L194.980,0.145 L196.420,0.145 L196.420,3.805 L198.320,3.805 L198.320,5.185 L196.420,5.185 L196.420,9.385 C197.180,9.065 197.973,8.692 198.800,8.265 L198.800,9.705 C198.066,10.065 197.273,10.425 196.420,10.785 L196.420,16.405 ZM178.740,6.465 L184.140,6.465 L184.140,5.105 L180.100,5.105 L180.100,3.945 L184.140,3.945 L184.140,2.605 L179.300,2.605 L179.300,1.425 L184.140,1.425 L184.140,0.125 L185.520,0.125 L185.520,1.425 L190.480,1.425 L190.480,2.605 L185.520,2.605 L185.520,3.945 L189.760,3.945 L189.760,5.105 L185.520,5.105 L185.520,6.465 L190.980,6.465 L190.980,7.665 L178.740,7.665 L178.740,6.465 ZM174.100,1.325 L175.120,0.345 C176.426,1.319 177.553,2.332 178.500,3.385 L177.520,4.385 C176.680,3.425 175.540,2.405 174.100,1.325 ZM176.940,15.025 C177.460,14.532 178.093,13.905 178.840,13.145 L179.220,14.665 C178.113,15.812 176.926,16.845 175.660,17.765 L175.100,16.485 C175.406,16.205 175.560,15.899 175.560,15.565 L175.560,7.625 L172.700,7.625 L172.700,6.245 L176.940,6.245 L176.940,15.025 ZM178.440,34.451 C179.616,34.451 180.702,34.595 181.698,34.883 C182.694,35.171 183.534,35.610 184.218,36.197 C184.902,36.786 185.406,37.518 185.730,38.393 C186.054,39.270 186.132,40.296 185.964,41.471 C185.772,42.864 185.232,44.052 184.344,45.035 C183.456,46.020 182.292,46.716 180.852,47.123 L180.852,47.195 C182.340,47.604 183.414,48.342 184.074,49.409 C184.734,50.478 184.956,51.803 184.740,53.387 C184.572,54.611 184.176,55.691 183.552,56.627 C182.928,57.563 182.160,58.337 181.248,58.949 C180.336,59.561 179.316,60.024 178.188,60.335 C177.060,60.647 175.908,60.803 174.732,60.803 C173.556,60.803 172.446,60.647 171.402,60.335 C170.358,60.024 169.470,59.561 168.738,58.949 C168.006,58.337 167.460,57.563 167.100,56.627 C166.740,55.691 166.644,54.611 166.812,53.387 C167.028,51.803 167.622,50.478 168.594,49.409 C169.566,48.342 170.844,47.604 172.428,47.195 L172.428,47.123 C171.108,46.716 170.142,46.020 169.530,45.035 C168.918,44.052 168.708,42.864 168.900,41.471 C169.068,40.296 169.440,39.270 170.016,38.393 C170.592,37.518 171.312,36.786 172.176,36.197 C173.040,35.610 174.006,35.171 175.074,34.883 C176.142,34.595 177.264,34.451 178.440,34.451 ZM172.320,52.631 C172.200,53.520 172.416,54.276 172.968,54.899 C173.520,55.524 174.336,55.835 175.416,55.835 C176.472,55.835 177.378,55.524 178.134,54.899 C178.890,54.276 179.328,53.520 179.448,52.631 C179.568,51.720 179.346,50.952 178.782,50.327 C178.218,49.704 177.396,49.391 176.316,49.391 C175.236,49.391 174.330,49.704 173.598,50.327 C172.866,50.952 172.440,51.720 172.320,52.631 ZM174.768,44.243 C175.272,44.796 175.992,45.071 176.928,45.071 C177.864,45.071 178.656,44.796 179.304,44.243 C179.952,43.692 180.336,43.019 180.456,42.227 C180.576,41.460 180.384,40.800 179.880,40.247 C179.376,39.696 178.656,39.419 177.720,39.419 C176.784,39.419 175.992,39.696 175.344,40.247 C174.696,40.800 174.312,41.460 174.192,42.227 C174.072,43.019 174.264,43.692 174.768,44.243 ZM158.160,11.165 C157.346,10.019 156.206,8.799 154.740,7.505 L155.740,6.565 C157.073,7.739 158.213,8.945 159.160,10.185 L158.160,11.165 ZM170.540,16.885 C167.313,14.659 164.880,11.932 163.240,8.705 L163.240,16.485 C163.240,17.725 162.640,18.345 161.440,18.345 L158.740,18.345 L158.440,16.965 C159.413,17.032 160.246,17.065 160.940,17.065 C161.486,17.065 161.760,16.752 161.760,16.125 L161.760,10.665 C159.640,13.252 157.180,15.399 154.380,17.105 L153.600,15.805 C156.693,14.112 159.413,11.819 161.760,8.925 L161.760,5.185 L153.800,5.185 L153.800,3.805 L161.760,3.805 L161.760,0.065 L163.240,0.065 L163.240,3.805 L167.760,3.805 C167.053,2.979 166.080,2.072 164.840,1.085 L165.780,0.205 C166.940,1.059 167.940,1.945 168.780,2.865 L167.840,3.805 L170.880,3.805 L170.880,5.185 L163.240,5.185 L163.240,6.345 C163.786,7.585 164.446,8.739 165.220,9.805 C166.646,8.725 167.866,7.505 168.880,6.145 L169.940,7.085 C168.846,8.499 167.526,9.739 165.980,10.805 C167.486,12.672 169.340,14.305 171.540,15.705 L170.540,16.885 ZM158.028,34.451 C159.204,34.451 160.290,34.595 161.286,34.883 C162.282,35.171 163.122,35.610 163.806,36.197 C164.490,36.786 164.994,37.518 165.318,38.393 C165.642,39.270 165.720,40.296 165.552,41.471 C165.360,42.864 164.820,44.052 163.932,45.035 C163.044,46.020 161.880,46.716 160.440,47.123 L160.440,47.195 C161.928,47.604 163.002,48.342 163.662,49.409 C164.322,50.478 164.544,51.803 164.328,53.387 C164.160,54.611 163.764,55.691 163.140,56.627 C162.516,57.563 161.748,58.337 160.836,58.949 C159.924,59.561 158.904,60.024 157.776,60.335 C156.648,60.647 155.496,60.803 154.320,60.803 C153.144,60.803 152.034,60.647 150.990,60.335 C149.946,60.024 149.058,59.561 148.326,58.949 C147.594,58.337 147.048,57.563 146.688,56.627 C146.328,55.691 146.232,54.611 146.400,53.387 C146.616,51.803 147.210,50.478 148.182,49.409 C149.154,48.342 150.432,47.604 152.016,47.195 L152.016,47.123 C150.696,46.716 149.730,46.020 149.118,45.035 C148.506,44.052 148.296,42.864 148.488,41.471 C148.656,40.296 149.028,39.270 149.604,38.393 C150.180,37.518 150.900,36.786 151.764,36.197 C152.628,35.610 153.594,35.171 154.662,34.883 C155.730,34.595 156.852,34.451 158.028,34.451 ZM151.908,52.631 C151.788,53.520 152.004,54.276 152.556,54.899 C153.108,55.524 153.924,55.835 155.004,55.835 C156.060,55.835 156.966,55.524 157.722,54.899 C158.478,54.276 158.916,53.520 159.036,52.631 C159.156,51.720 158.934,50.952 158.370,50.327 C157.806,49.704 156.984,49.391 155.904,49.391 C154.824,49.391 153.918,49.704 153.186,50.327 C152.454,50.952 152.028,51.720 151.908,52.631 ZM154.356,44.243 C154.860,44.796 155.580,45.071 156.516,45.071 C157.452,45.071 158.244,44.796 158.892,44.243 C159.540,43.692 159.924,43.019 160.044,42.227 C160.164,41.460 159.972,40.800 159.468,40.247 C158.964,39.696 158.244,39.419 157.308,39.419 C156.372,39.419 155.580,39.696 154.932,40.247 C154.284,40.800 153.900,41.460 153.780,42.227 C153.660,43.019 153.852,43.692 154.356,44.243 ZM142.600,12.305 L150.380,12.305 L150.380,16.685 C150.380,17.858 149.786,18.445 148.600,18.445 L147.180,18.445 L146.860,17.205 L148.200,17.265 C148.720,17.265 148.980,16.972 148.980,16.385 L148.980,13.545 L145.760,13.545 L145.760,18.285 L144.380,18.285 L144.380,13.545 L141.420,13.545 L141.420,18.285 L140.040,18.285 L140.040,13.545 L137.040,13.545 L137.040,18.525 L135.680,18.525 L135.680,12.305 L141.140,12.305 L141.820,10.865 L134.000,10.865 L134.000,9.625 L151.720,9.625 L151.720,10.865 L143.280,10.865 L142.600,12.305 ZM148.800,8.465 L144.620,8.465 L144.620,7.505 L148.800,7.505 L148.800,8.465 ZM144.600,5.505 L148.740,5.505 L148.740,6.465 L144.600,6.465 L144.600,5.505 ZM141.100,8.465 L136.940,8.465 L136.940,7.505 L141.100,7.505 L141.100,8.465 ZM136.940,5.505 L141.100,5.505 L141.100,6.465 L136.940,6.465 L136.940,5.505 ZM149.860,4.385 L143.560,4.385 L143.560,8.805 L142.160,8.805 L142.160,4.385 L135.860,4.385 L135.860,7.365 L134.480,7.365 L134.480,3.245 L142.160,3.245 L142.160,1.985 L135.220,1.985 L135.220,0.805 L150.520,0.805 L150.520,1.985 L143.560,1.985 L143.560,3.245 L151.240,3.245 L151.240,7.365 L149.860,7.365 L149.860,4.385 ZM132.340,6.305 L132.340,7.625 L129.060,7.625 C128.473,8.332 127.880,8.959 127.280,9.505 L131.360,9.505 L131.360,18.425 L130.000,18.425 L130.000,17.585 L126.260,17.585 L126.260,18.425 L124.920,18.425 L124.920,11.265 C124.600,11.452 124.120,11.705 123.480,12.025 L122.760,10.885 C124.480,10.099 125.993,9.012 127.300,7.625 L123.660,7.625 L123.660,6.305 L126.500,6.305 L126.500,3.725 L124.100,3.725 L124.100,2.465 L126.500,2.465 L126.500,0.165 L127.800,0.165 L127.800,2.465 L130.060,2.465 L130.060,3.645 C130.460,2.845 130.840,2.025 131.200,1.185 L132.400,1.805 C131.746,3.432 130.960,4.932 130.040,6.305 L132.340,6.305 ZM126.260,16.325 L130.000,16.325 L130.000,14.125 L126.260,14.125 L126.260,16.325 ZM126.260,12.925 L130.000,12.925 L130.000,10.765 L126.260,10.765 L126.260,12.925 ZM127.800,3.725 L127.800,6.305 L128.400,6.305 C128.986,5.505 129.526,4.645 130.020,3.725 L127.800,3.725 ZM119.160,1.885 L120.140,0.925 C121.340,1.952 122.320,2.945 123.080,3.905 L122.020,4.965 C121.300,3.979 120.346,2.952 119.160,1.885 ZM117.440,18.485 L116.040,18.485 L116.040,7.325 C115.586,8.085 115.086,8.825 114.540,9.545 L114.060,8.005 C115.646,5.699 116.786,3.072 117.480,0.125 L118.780,0.725 C118.433,2.019 117.986,3.312 117.440,4.605 L117.440,18.485 ZM107.900,16.625 C107.900,17.812 107.306,18.405 106.120,18.405 L103.620,18.405 L103.240,17.045 C104.200,17.072 104.966,17.085 105.540,17.085 C106.153,17.085 106.460,16.778 106.460,16.165 L106.460,12.845 L100.660,12.845 L100.660,11.465 L106.460,11.465 L106.460,9.605 C107.633,8.952 108.720,8.199 109.720,7.345 L102.200,7.345 L102.200,6.005 L111.560,6.005 L111.560,7.345 C110.453,8.372 109.233,9.325 107.900,10.205 L107.900,11.465 L112.900,11.465 L112.900,12.845 L107.900,12.845 L107.900,16.625 ZM99.100,8.305 L99.100,18.485 L97.700,18.485 L97.700,10.025 C96.993,10.799 96.280,11.505 95.560,12.145 L94.660,11.005 C97.086,8.872 98.953,6.392 100.260,3.565 L95.400,3.565 L95.400,2.165 L100.840,2.165 C101.133,1.379 101.366,0.672 101.540,0.045 L103.000,0.225 C102.773,0.999 102.566,1.645 102.380,2.165 L112.620,2.165 L112.620,3.565 L101.840,3.565 C101.106,5.259 100.193,6.839 99.100,8.305 ZM94.633,47.627 C94.417,49.139 94.063,50.676 93.571,52.235 C93.079,53.796 92.389,55.212 91.501,56.483 C90.613,57.756 89.503,58.794 88.171,59.597 C86.839,60.401 85.225,60.803 83.329,60.803 C81.433,60.803 79.933,60.401 78.829,59.597 C77.725,58.794 76.903,57.756 76.363,56.483 C75.823,55.212 75.523,53.796 75.463,52.235 C75.403,50.676 75.481,49.139 75.697,47.627 C75.913,46.115 76.273,44.580 76.777,43.019 C77.281,41.460 77.977,40.044 78.865,38.771 C79.753,37.500 80.863,36.462 82.195,35.657 C83.527,34.854 85.141,34.451 87.037,34.451 C88.933,34.451 90.433,34.854 91.537,35.657 C92.641,36.462 93.457,37.500 93.985,38.771 C94.513,40.044 94.807,41.460 94.867,43.019 C94.927,44.580 94.849,46.115 94.633,47.627 ZM89.377,42.515 C89.233,41.651 88.927,40.920 88.459,40.319 C87.991,39.720 87.277,39.419 86.317,39.419 C85.333,39.419 84.529,39.720 83.905,40.319 C83.281,40.920 82.777,41.651 82.393,42.515 C82.009,43.379 81.721,44.279 81.529,45.215 C81.337,46.151 81.193,46.956 81.097,47.627 C81.001,48.300 80.917,49.103 80.845,50.039 C80.773,50.975 80.809,51.875 80.953,52.739 C81.097,53.603 81.397,54.336 81.853,54.935 C82.309,55.536 83.029,55.835 84.013,55.835 C84.973,55.835 85.771,55.536 86.407,54.935 C87.043,54.336 87.553,53.603 87.937,52.739 C88.321,51.875 88.609,50.975 88.801,50.039 C88.993,49.103 89.137,48.300 89.233,47.627 C89.329,46.956 89.413,46.151 89.485,45.215 C89.557,44.279 89.521,43.379 89.377,42.515 ZM81.380,6.065 L90.660,6.065 L90.660,16.865 C90.660,17.838 90.100,18.345 88.980,18.385 L86.740,18.385 L86.380,17.065 C87.393,17.118 88.106,17.145 88.520,17.145 C89.040,17.145 89.300,16.905 89.300,16.425 L89.300,14.145 L81.360,14.145 L81.360,18.425 L80.000,18.425 L80.000,7.965 C78.880,9.379 77.593,10.665 76.140,11.825 L75.200,10.605 C77.720,8.605 79.666,6.319 81.040,3.745 L75.740,3.745 L75.740,2.345 L81.700,2.345 C82.060,1.519 82.353,0.739 82.580,0.005 L84.040,0.185 C83.746,1.105 83.493,1.825 83.280,2.345 L93.220,2.345 L93.220,3.745 L82.680,3.745 C82.226,4.665 81.793,5.439 81.380,6.065 ZM81.360,12.885 L89.300,12.885 L89.300,10.765 L81.360,10.765 L81.360,12.885 ZM81.360,9.505 L89.300,9.505 L89.300,7.325 L81.360,7.325 L81.360,9.505 ZM73.466,55.259 L70.190,55.259 L69.506,60.371 L64.322,60.371 L65.006,55.259 L53.882,55.259 L54.530,50.723 L67.166,34.883 L73.070,34.883 L70.838,50.723 L74.114,50.723 L73.466,55.259 ZM66.806,41.939 L59.930,50.723 L65.654,50.723 L66.878,41.939 L66.806,41.939 ZM71.440,16.365 L67.340,16.365 L67.340,17.585 L65.940,17.585 L65.940,1.925 L72.840,1.925 L72.840,17.585 L71.440,17.585 L71.440,16.365 ZM71.440,3.325 L67.340,3.325 L67.340,14.965 L71.440,14.965 L71.440,3.325 ZM63.920,16.705 C63.160,15.959 62.240,15.159 61.160,14.305 C60.066,15.879 58.686,17.238 57.020,18.385 L56.060,17.205 C57.673,16.165 59.006,14.905 60.060,13.425 C58.793,12.452 57.653,11.605 56.640,10.885 C57.240,9.165 57.786,7.259 58.280,5.165 L55.940,5.165 L55.940,3.765 L58.580,3.765 C58.873,2.272 59.100,1.039 59.260,0.065 L60.720,0.185 C60.493,1.519 60.273,2.712 60.060,3.765 L64.220,3.765 L64.220,4.605 C64.020,7.885 63.253,10.712 61.920,13.085 C63.160,14.032 64.153,14.852 64.900,15.545 L63.920,16.705 ZM62.860,5.165 L59.760,5.165 C59.293,7.232 58.786,8.999 58.240,10.465 C59.120,11.052 59.973,11.645 60.800,12.245 C61.946,10.205 62.633,7.845 62.860,5.165 ZM29.413,60.594 L29.346,60.577 C21.321,58.301 13.806,48.106 8.911,39.954 C4.015,31.801 -1.452,20.379 0.301,12.257 C0.924,9.366 9.139,6.057 9.220,6.025 C10.065,5.704 10.954,5.675 11.737,5.870 C12.729,6.117 13.548,6.726 13.880,7.559 C14.235,8.442 17.495,17.700 17.844,18.754 C18.217,19.870 17.775,21.280 16.661,22.525 C16.074,23.183 14.185,25.165 13.260,26.133 C13.714,27.308 14.931,30.116 17.678,34.685 C20.441,39.291 22.332,41.662 23.152,42.610 C24.442,42.246 27.078,41.508 27.940,41.298 C28.825,41.080 29.679,41.070 30.402,41.251 C30.964,41.390 31.447,41.646 31.806,42.010 C32.628,42.845 39.232,50.085 39.828,50.774 C40.810,51.905 40.774,54.077 39.002,55.618 C38.937,55.675 32.245,61.300 29.413,60.594 ZM97.189,43.019 C97.693,41.460 98.389,40.044 99.277,38.771 C100.165,37.500 101.275,36.462 102.607,35.657 C103.939,34.854 105.553,34.451 107.449,34.451 C109.345,34.451 110.845,34.854 111.949,35.657 C113.053,36.462 113.869,37.500 114.397,38.771 C114.925,40.044 115.219,41.460 115.279,43.019 C115.339,44.580 115.261,46.115 115.045,47.627 C114.829,49.139 114.475,50.676 113.983,52.235 C113.491,53.796 112.801,55.212 111.913,56.483 C111.025,57.756 109.915,58.794 108.583,59.597 C107.251,60.401 105.637,60.803 103.741,60.803 C101.845,60.803 100.345,60.401 99.241,59.597 C98.137,58.794 97.315,57.756 96.775,56.483 C96.235,55.212 95.935,53.796 95.875,52.235 C95.815,50.676 95.893,49.139 96.109,47.627 C96.325,46.115 96.685,44.580 97.189,43.019 ZM101.365,52.739 C101.509,53.603 101.809,54.336 102.265,54.935 C102.721,55.536 103.441,55.835 104.425,55.835 C105.385,55.835 106.183,55.536 106.819,54.935 C107.455,54.336 107.965,53.603 108.349,52.739 C108.733,51.875 109.021,50.975 109.213,50.039 C109.405,49.103 109.549,48.300 109.645,47.627 C109.741,46.956 109.825,46.151 109.897,45.215 C109.969,44.279 109.933,43.379 109.789,42.515 C109.645,41.651 109.339,40.920 108.871,40.319 C108.403,39.720 107.689,39.419 106.729,39.419 C105.745,39.419 104.941,39.720 104.317,40.319 C103.693,40.920 103.189,41.651 102.805,42.515 C102.421,43.379 102.133,44.279 101.941,45.215 C101.749,46.151 101.605,46.956 101.509,47.627 C101.413,48.300 101.329,49.103 101.257,50.039 C101.185,50.975 101.221,51.875 101.365,52.739 ZM118.240,7.685 L118.240,6.345 L121.860,6.345 L121.860,14.825 C122.300,14.359 122.846,13.739 123.500,12.965 L123.840,14.385 C122.893,15.585 121.826,16.712 120.640,17.765 L120.060,16.445 C120.340,16.205 120.480,15.945 120.480,15.665 L120.480,7.685 L118.240,7.685 ZM124.873,49.247 L124.261,53.567 L115.405,53.567 L116.017,49.247 L124.873,49.247 ZM127.771,49.409 C128.743,48.342 130.021,47.604 131.605,47.195 L131.605,47.123 C130.284,46.716 129.319,46.020 128.707,45.035 C128.095,44.052 127.884,42.864 128.077,41.471 C128.244,40.296 128.617,39.270 129.193,38.393 C129.769,37.518 130.489,36.786 131.353,36.197 C132.217,35.610 133.182,35.171 134.251,34.883 C135.318,34.595 136.440,34.451 137.617,34.451 C138.792,34.451 139.878,34.595 140.875,34.883 C141.870,35.171 142.711,35.610 143.395,36.197 C144.079,36.786 144.583,37.518 144.907,38.393 C145.231,39.270 145.308,40.296 145.141,41.471 C144.948,42.864 144.408,44.052 143.521,45.035 C142.632,46.020 141.469,46.716 140.029,47.123 L140.029,47.195 C141.516,47.604 142.590,48.342 143.251,49.409 C143.910,50.478 144.133,51.803 143.917,53.387 C143.748,54.611 143.352,55.691 142.729,56.627 C142.104,57.563 141.336,58.337 140.425,58.949 C139.512,59.561 138.492,60.024 137.365,60.335 C136.236,60.647 135.084,60.803 133.909,60.803 C132.732,60.803 131.623,60.647 130.579,60.335 C129.535,60.024 128.646,59.561 127.915,58.949 C127.182,58.337 126.637,57.563 126.277,56.627 C125.917,55.691 125.820,54.611 125.989,53.387 C126.205,51.803 126.799,50.478 127.771,49.409 ZM139.057,40.247 C138.553,39.696 137.833,39.419 136.897,39.419 C135.961,39.419 135.169,39.696 134.521,40.247 C133.873,40.800 133.488,41.460 133.369,42.227 C133.248,43.019 133.441,43.692 133.945,44.243 C134.449,44.796 135.169,45.071 136.105,45.071 C137.041,45.071 137.833,44.796 138.481,44.243 C139.129,43.692 139.512,43.019 139.633,42.227 C139.752,41.460 139.561,40.800 139.057,40.247 ZM132.145,54.899 C132.696,55.524 133.513,55.835 134.593,55.835 C135.648,55.835 136.555,55.524 137.311,54.899 C138.067,54.276 138.504,53.520 138.625,52.631 C138.744,51.720 138.522,50.952 137.959,50.327 C137.394,49.704 136.573,49.391 135.493,49.391 C134.413,49.391 133.506,49.704 132.775,50.327 C132.042,50.952 131.616,51.720 131.497,52.631 C131.376,53.520 131.592,54.276 132.145,54.899 ZM187.360,17.125 C187.853,17.125 188.100,16.892 188.100,16.425 L188.100,15.285 L181.640,15.285 L181.640,18.465 L180.260,18.465 L180.260,8.925 L189.480,8.925 L189.480,16.725 C189.480,17.805 188.913,18.345 187.780,18.345 L186.100,18.345 L185.760,17.065 L187.360,17.125 ZM188.100,10.105 L181.640,10.105 L181.640,11.585 L188.100,11.585 L188.100,10.105 ZM188.100,12.705 L181.640,12.705 L181.640,14.165 L188.100,14.165 L188.100,12.705 ZM195.864,49.247 L195.252,53.567 L186.396,53.567 L187.008,49.247 L195.864,49.247 Z" class="cls-1"/>
</svg>
