<svg xmlns="http://www.w3.org/2000/svg" xmlns:xlink="http://www.w3.org/1999/xlink" preserveAspectRatio="xMidYMid" width="223.97" height="66.16" viewBox="0 0 223.97 66.16">
  <defs>
    <style>
      .cls-1 {
        fill: gold;
      }

      .cls-1, .cls-2 {
        fill-rule: evenodd;
      }

      .cls-2 {
        fill: #000;
      }
    </style>
  </defs>
  <g>
    <path d="M213.966,66.160 L9.997,66.160 C4.475,66.160 -0.003,61.683 -0.003,56.160 L-0.003,10.004 C-0.003,4.481 4.475,0.004 9.997,0.004 L213.966,0.004 C219.489,0.004 223.966,4.481 223.966,10.004 L223.966,56.160 C223.966,61.683 219.489,66.160 213.966,66.160 Z" class="cls-1"/>
    <path d="M211.236,28.616 C211.049,29.886 210.657,30.926 210.060,31.738 C209.462,32.550 208.734,33.283 207.876,33.936 L201.128,39.116 L209.920,39.116 L209.416,42.812 L195.584,42.812 L196.200,38.360 L204.880,31.444 C205.104,31.258 205.332,31.066 205.566,30.870 C205.799,30.674 206.014,30.464 206.210,30.240 C206.406,30.016 206.578,29.774 206.728,29.512 C206.877,29.251 206.970,28.971 207.008,28.672 C207.101,28.000 206.933,27.473 206.504,27.090 C206.074,26.708 205.533,26.516 204.880,26.516 C204.096,26.516 203.452,26.759 202.948,27.244 C202.444,27.730 202.117,28.327 201.968,29.036 L197.796,28.728 C198.001,27.702 198.346,26.810 198.832,26.054 C199.317,25.298 199.900,24.668 200.582,24.164 C201.263,23.660 202.038,23.282 202.906,23.030 C203.774,22.778 204.693,22.652 205.664,22.652 C206.560,22.652 207.381,22.778 208.128,23.030 C208.874,23.282 209.500,23.656 210.004,24.150 C210.508,24.645 210.872,25.266 211.096,26.012 C211.320,26.759 211.366,27.627 211.236,28.616 ZM195.458,31.402 C195.243,31.990 194.991,32.546 194.702,33.068 C194.412,33.591 194.090,34.090 193.736,34.566 C193.381,35.042 193.017,35.532 192.644,36.036 L187.352,42.812 L182.228,42.812 L187.856,35.728 C187.613,35.784 187.380,35.831 187.156,35.868 C186.932,35.906 186.698,35.924 186.456,35.924 C185.522,35.924 184.696,35.756 183.978,35.420 C183.259,35.084 182.671,34.627 182.214,34.048 C181.756,33.470 181.434,32.784 181.248,31.990 C181.061,31.197 181.033,30.352 181.164,29.456 C181.294,28.430 181.612,27.501 182.116,26.670 C182.620,25.840 183.245,25.126 183.992,24.528 C184.738,23.931 185.583,23.469 186.526,23.142 C187.468,22.816 188.462,22.652 189.508,22.652 C190.534,22.652 191.477,22.816 192.336,23.142 C193.194,23.469 193.913,23.931 194.492,24.528 C195.070,25.126 195.490,25.840 195.752,26.670 C196.013,27.501 196.078,28.430 195.948,29.456 C195.836,30.166 195.672,30.814 195.458,31.402 ZM191.132,27.398 C190.609,26.810 189.881,26.516 188.948,26.516 C187.996,26.516 187.188,26.810 186.526,27.398 C185.863,27.986 185.466,28.728 185.336,29.624 C185.205,30.520 185.396,31.262 185.910,31.850 C186.423,32.438 187.146,32.732 188.080,32.732 C189.032,32.732 189.844,32.438 190.516,31.850 C191.188,31.262 191.589,30.520 191.720,29.624 C191.850,28.728 191.654,27.986 191.132,27.398 ZM170.524,42.812 L172.624,27.692 L168.172,31.192 L166.184,28.448 L173.408,22.988 L177.328,22.988 L174.556,42.812 L170.524,42.812 ZM163.706,31.402 C163.491,31.990 163.239,32.546 162.950,33.068 C162.660,33.591 162.338,34.090 161.984,34.566 C161.629,35.042 161.265,35.532 160.892,36.036 L155.600,42.812 L150.476,42.812 L156.104,35.728 C155.861,35.784 155.628,35.831 155.404,35.868 C155.180,35.906 154.946,35.924 154.704,35.924 C153.770,35.924 152.944,35.756 152.226,35.420 C151.507,35.084 150.919,34.627 150.462,34.048 C150.004,33.470 149.682,32.784 149.496,31.990 C149.309,31.197 149.281,30.352 149.412,29.456 C149.542,28.430 149.860,27.501 150.364,26.670 C150.868,25.840 151.493,25.126 152.240,24.528 C152.986,23.931 153.831,23.469 154.774,23.142 C155.716,22.816 156.710,22.652 157.756,22.652 C158.782,22.652 159.725,22.816 160.584,23.142 C161.442,23.469 162.161,23.931 162.740,24.528 C163.318,25.126 163.738,25.840 164.000,26.670 C164.261,27.501 164.326,28.430 164.196,29.456 C164.084,30.166 163.920,30.814 163.706,31.402 ZM159.380,27.398 C158.857,26.810 158.129,26.516 157.196,26.516 C156.244,26.516 155.436,26.810 154.774,27.398 C154.111,27.986 153.714,28.728 153.584,29.624 C153.453,30.520 153.644,31.262 154.158,31.850 C154.671,32.438 155.394,32.732 156.328,32.732 C157.280,32.732 158.092,32.438 158.764,31.850 C159.436,31.262 159.837,30.520 159.968,29.624 C160.098,28.728 159.902,27.986 159.380,27.398 ZM140.424,37.520 L140.900,34.160 L147.788,34.160 L147.312,37.520 L140.424,37.520 ZM138.828,30.884 C138.138,31.650 137.232,32.191 136.112,32.508 L136.112,32.564 C137.270,32.882 138.105,33.456 138.618,34.286 C139.132,35.117 139.304,36.148 139.136,37.380 C139.006,38.332 138.698,39.172 138.212,39.900 C137.727,40.628 137.130,41.230 136.420,41.706 C135.711,42.182 134.918,42.542 134.040,42.784 C133.163,43.027 132.267,43.148 131.352,43.148 C130.438,43.148 129.574,43.027 128.762,42.784 C127.950,42.542 127.260,42.182 126.690,41.706 C126.121,41.230 125.696,40.628 125.416,39.900 C125.136,39.172 125.062,38.332 125.192,37.380 C125.360,36.148 125.822,35.117 126.578,34.286 C127.334,33.456 128.328,32.882 129.560,32.564 L129.560,32.508 C128.534,32.191 127.782,31.650 127.306,30.884 C126.830,30.119 126.667,29.195 126.816,28.112 C126.947,27.198 127.236,26.400 127.684,25.718 C128.132,25.037 128.692,24.468 129.364,24.010 C130.036,23.553 130.788,23.212 131.618,22.988 C132.449,22.764 133.322,22.652 134.236,22.652 C135.151,22.652 135.996,22.764 136.770,22.988 C137.545,23.212 138.198,23.553 138.730,24.010 C139.262,24.468 139.654,25.037 139.906,25.718 C140.158,26.400 140.219,27.198 140.088,28.112 C139.939,29.195 139.519,30.119 138.828,30.884 ZM129.476,36.792 C129.383,37.483 129.551,38.071 129.980,38.556 C130.410,39.042 131.044,39.284 131.884,39.284 C132.706,39.284 133.410,39.042 133.998,38.556 C134.586,38.071 134.927,37.483 135.020,36.792 C135.114,36.083 134.941,35.486 134.502,35.000 C134.064,34.515 133.424,34.272 132.584,34.272 C131.744,34.272 131.040,34.515 130.470,35.000 C129.901,35.486 129.570,36.083 129.476,36.792 ZM135.356,27.160 C134.964,26.731 134.404,26.516 133.676,26.516 C132.948,26.516 132.332,26.731 131.828,27.160 C131.324,27.590 131.026,28.103 130.932,28.700 C130.839,29.316 130.988,29.839 131.380,30.268 C131.772,30.698 132.332,30.912 133.060,30.912 C133.788,30.912 134.404,30.698 134.908,30.268 C135.412,29.839 135.711,29.316 135.804,28.700 C135.898,28.103 135.748,27.590 135.356,27.160 ZM122.952,30.884 C122.262,31.650 121.356,32.191 120.236,32.508 L120.236,32.564 C121.394,32.882 122.229,33.456 122.742,34.286 C123.256,35.117 123.428,36.148 123.260,37.380 C123.130,38.332 122.822,39.172 122.336,39.900 C121.851,40.628 121.254,41.230 120.544,41.706 C119.835,42.182 119.042,42.542 118.164,42.784 C117.287,43.027 116.391,43.148 115.476,43.148 C114.562,43.148 113.698,43.027 112.886,42.784 C112.074,42.542 111.384,42.182 110.814,41.706 C110.245,41.230 109.820,40.628 109.540,39.900 C109.260,39.172 109.186,38.332 109.316,37.380 C109.484,36.148 109.946,35.117 110.702,34.286 C111.458,33.456 112.452,32.882 113.684,32.564 L113.684,32.508 C112.658,32.191 111.906,31.650 111.430,30.884 C110.954,30.119 110.791,29.195 110.940,28.112 C111.071,27.198 111.360,26.400 111.808,25.718 C112.256,25.037 112.816,24.468 113.488,24.010 C114.160,23.553 114.912,23.212 115.742,22.988 C116.573,22.764 117.446,22.652 118.360,22.652 C119.275,22.652 120.120,22.764 120.894,22.988 C121.669,23.212 122.322,23.553 122.854,24.010 C123.386,24.468 123.778,25.037 124.030,25.718 C124.282,26.400 124.343,27.198 124.212,28.112 C124.063,29.195 123.643,30.119 122.952,30.884 ZM113.600,36.792 C113.507,37.483 113.675,38.071 114.104,38.556 C114.534,39.042 115.168,39.284 116.008,39.284 C116.830,39.284 117.534,39.042 118.122,38.556 C118.710,38.071 119.051,37.483 119.144,36.792 C119.238,36.083 119.065,35.486 118.626,35.000 C118.188,34.515 117.548,34.272 116.708,34.272 C115.868,34.272 115.164,34.515 114.594,35.000 C114.025,35.486 113.694,36.083 113.600,36.792 ZM119.480,27.160 C119.088,26.731 118.528,26.516 117.800,26.516 C117.072,26.516 116.456,26.731 115.952,27.160 C115.448,27.590 115.150,28.103 115.056,28.700 C114.963,29.316 115.112,29.839 115.504,30.268 C115.896,30.698 116.456,30.912 117.184,30.912 C117.912,30.912 118.528,30.698 119.032,30.268 C119.536,29.839 119.835,29.316 119.928,28.700 C120.022,28.103 119.872,27.590 119.480,27.160 ZM107.077,30.884 C106.386,31.650 105.481,32.191 104.361,32.508 L104.361,32.564 C105.518,32.882 106.353,33.456 106.867,34.286 C107.380,35.117 107.553,36.148 107.385,37.380 C107.254,38.332 106.946,39.172 106.461,39.900 C105.975,40.628 105.378,41.230 104.669,41.706 C103.959,42.182 103.166,42.542 102.289,42.784 C101.411,43.027 100.515,43.148 99.601,43.148 C98.686,43.148 97.823,43.027 97.011,42.784 C96.199,42.542 95.508,42.182 94.939,41.706 C94.369,41.230 93.945,40.628 93.665,39.900 C93.385,39.172 93.310,38.332 93.441,37.380 C93.609,36.148 94.071,35.117 94.827,34.286 C95.583,33.456 96.577,32.882 97.809,32.564 L97.809,32.508 C96.782,32.191 96.031,31.650 95.555,30.884 C95.079,30.119 94.915,29.195 95.065,28.112 C95.195,27.198 95.485,26.400 95.933,25.718 C96.381,25.037 96.941,24.468 97.613,24.010 C98.285,23.553 99.036,23.212 99.867,22.988 C100.697,22.764 101.570,22.652 102.485,22.652 C103.399,22.652 104.244,22.764 105.019,22.988 C105.793,23.212 106.447,23.553 106.979,24.010 C107.511,24.468 107.903,25.037 108.155,25.718 C108.407,26.400 108.467,27.198 108.337,28.112 C108.187,29.195 107.767,30.119 107.077,30.884 ZM97.725,36.792 C97.631,37.483 97.799,38.071 98.229,38.556 C98.658,39.042 99.293,39.284 100.133,39.284 C100.954,39.284 101.659,39.042 102.247,38.556 C102.835,38.071 103.175,37.483 103.269,36.792 C103.362,36.083 103.189,35.486 102.751,35.000 C102.312,34.515 101.673,34.272 100.833,34.272 C99.993,34.272 99.288,34.515 98.719,35.000 C98.149,35.486 97.818,36.083 97.725,36.792 ZM103.605,27.160 C103.213,26.731 102.653,26.516 101.925,26.516 C101.197,26.516 100.581,26.731 100.077,27.160 C99.573,27.590 99.274,28.103 99.181,28.700 C99.087,29.316 99.237,29.839 99.629,30.268 C100.021,30.698 100.581,30.912 101.309,30.912 C102.037,30.912 102.653,30.698 103.157,30.268 C103.661,29.839 103.959,29.316 104.053,28.700 C104.146,28.103 103.997,27.590 103.605,27.160 ZM85.209,37.520 L85.685,34.160 L92.573,34.160 L92.097,37.520 L85.209,37.520 ZM84.103,36.484 C83.720,37.698 83.183,38.799 82.493,39.788 C81.802,40.778 80.939,41.585 79.903,42.210 C78.867,42.836 77.611,43.148 76.137,43.148 C74.662,43.148 73.495,42.836 72.637,42.210 C71.778,41.585 71.139,40.778 70.719,39.788 C70.299,38.799 70.065,37.698 70.019,36.484 C69.972,35.271 70.033,34.076 70.201,32.900 C70.369,31.724 70.649,30.530 71.041,29.316 C71.433,28.103 71.974,27.002 72.665,26.012 C73.355,25.023 74.219,24.216 75.255,23.590 C76.291,22.965 77.546,22.652 79.021,22.652 C80.495,22.652 81.662,22.965 82.521,23.590 C83.379,24.216 84.014,25.023 84.425,26.012 C84.835,27.002 85.064,28.103 85.111,29.316 C85.157,30.530 85.097,31.724 84.929,32.900 C84.761,34.076 84.485,35.271 84.103,36.484 ZM80.841,28.924 C80.729,28.252 80.491,27.683 80.127,27.216 C79.763,26.750 79.207,26.516 78.461,26.516 C77.695,26.516 77.070,26.750 76.585,27.216 C76.099,27.683 75.707,28.252 75.409,28.924 C75.110,29.596 74.886,30.296 74.737,31.024 C74.587,31.752 74.475,32.378 74.401,32.900 C74.326,33.423 74.261,34.048 74.205,34.776 C74.149,35.504 74.177,36.204 74.289,36.876 C74.401,37.548 74.634,38.118 74.989,38.584 C75.343,39.051 75.903,39.284 76.669,39.284 C77.415,39.284 78.036,39.051 78.531,38.584 C79.025,38.118 79.422,37.548 79.721,36.876 C80.019,36.204 80.243,35.504 80.393,34.776 C80.542,34.048 80.654,33.423 80.729,32.900 C80.803,32.378 80.869,31.752 80.925,31.024 C80.981,30.296 80.953,29.596 80.841,28.924 ZM68.227,36.484 C67.844,37.698 67.308,38.799 66.617,39.788 C65.926,40.778 65.063,41.585 64.027,42.210 C62.991,42.836 61.736,43.148 60.261,43.148 C58.786,43.148 57.620,42.836 56.761,42.210 C55.902,41.585 55.263,40.778 54.843,39.788 C54.423,38.799 54.190,37.698 54.143,36.484 C54.096,35.271 54.157,34.076 54.325,32.900 C54.493,31.724 54.773,30.530 55.165,29.316 C55.557,28.103 56.098,27.002 56.789,26.012 C57.480,25.023 58.343,24.216 59.379,23.590 C60.415,22.965 61.670,22.652 63.145,22.652 C64.620,22.652 65.786,22.965 66.645,23.590 C67.504,24.216 68.138,25.023 68.549,26.012 C68.960,27.002 69.188,28.103 69.235,29.316 C69.282,30.530 69.221,31.724 69.053,32.900 C68.885,34.076 68.610,35.271 68.227,36.484 ZM64.965,28.924 C64.853,28.252 64.615,27.683 64.251,27.216 C63.887,26.750 63.332,26.516 62.585,26.516 C61.820,26.516 61.194,26.750 60.709,27.216 C60.224,27.683 59.832,28.252 59.533,28.924 C59.234,29.596 59.010,30.296 58.861,31.024 C58.712,31.752 58.600,32.378 58.525,32.900 C58.450,33.423 58.385,34.048 58.329,34.776 C58.273,35.504 58.301,36.204 58.413,36.876 C58.525,37.548 58.758,38.118 59.113,38.584 C59.468,39.051 60.028,39.284 60.793,39.284 C61.540,39.284 62.160,39.051 62.655,38.584 C63.150,38.118 63.546,37.548 63.845,36.876 C64.144,36.204 64.368,35.504 64.517,34.776 C64.666,34.048 64.778,33.423 64.853,32.900 C64.928,32.378 64.993,31.752 65.049,31.024 C65.105,30.296 65.077,29.596 64.965,28.924 ZM52.589,38.836 L50.041,38.836 L49.509,42.812 L45.477,42.812 L46.009,38.836 L37.357,38.836 L37.861,35.308 L47.689,22.988 L52.281,22.988 L50.545,35.308 L53.093,35.308 L52.589,38.836 ZM47.409,28.476 L42.061,35.308 L46.513,35.308 L47.465,28.476 L47.409,28.476 ZM26.174,45.943 L26.139,45.934 C21.989,44.757 18.103,39.485 15.571,35.269 C13.040,31.053 10.212,25.146 11.119,20.945 C11.441,19.450 15.689,17.739 15.731,17.723 C16.169,17.557 16.628,17.542 17.033,17.643 C17.546,17.770 17.969,18.085 18.141,18.516 C18.325,18.973 20.011,23.760 20.191,24.306 C20.384,24.883 20.155,25.612 19.579,26.256 C19.275,26.596 18.299,27.621 17.820,28.122 C18.055,28.729 18.685,30.181 20.105,32.544 C21.534,34.926 22.512,36.152 22.936,36.642 C23.603,36.454 24.966,36.073 25.412,35.964 C25.870,35.851 26.311,35.846 26.685,35.940 C26.976,36.012 27.226,36.144 27.411,36.333 C27.836,36.764 31.252,40.508 31.560,40.865 C32.068,41.450 32.049,42.572 31.133,43.370 C31.099,43.399 27.638,46.308 26.174,45.943 Z" class="cls-2"/>
  </g>
</svg>
