<?xml version="1.0" encoding="utf-8"?>
<!-- Generator: Adobe Illustrator 19.0.0, SVG Export Plug-In . SVG Version: 6.00 Build 0)  -->
<svg version="1.1" id="图层_1" xmlns="http://www.w3.org/2000/svg" xmlns:xlink="http://www.w3.org/1999/xlink" x="0px" y="0px"
	 viewBox="-1560 180 224 66.2" style="enable-background:new -1560 180 224 66.2;" xml:space="preserve">
<style type="text/css">
	.st0{fill:#FFC700;}
</style>
<g>
	<path class="st0" d="M-1346,246.2h-204c-5.5,0-10-4.5-10-10V190c0-5.5,4.5-10,10-10h204c5.5,0,10,4.5,10,10v46.2
		C-1336,241.7-1340.5,246.2-1346,246.2z"/>
	<path d="M-1348.8,208.7c-0.2,1.3-0.6,2.3-1.2,3.1c-0.6,0.8-1.3,1.5-2.2,2.2l-6.7,5.2h8.8l-0.5,3.7h-13.8l0.6-4.5l8.7-6.9
		c0.2-0.2,0.5-0.4,0.7-0.6c0.2-0.2,0.4-0.4,0.6-0.6c0.2-0.2,0.4-0.5,0.5-0.7c0.1-0.3,0.2-0.5,0.3-0.8c0.1-0.7-0.1-1.2-0.5-1.6
		c-0.4-0.4-1-0.6-1.6-0.6c-0.8,0-1.4,0.2-1.9,0.7c-0.5,0.5-0.8,1.1-1,1.8l-4.2-0.3c0.2-1,0.5-1.9,1-2.7c0.5-0.8,1.1-1.4,1.8-1.9
		c0.7-0.5,1.5-0.9,2.3-1.1s1.8-0.4,2.8-0.4c0.9,0,1.7,0.1,2.5,0.4c0.7,0.3,1.4,0.6,1.9,1.1c0.5,0.5,0.9,1.1,1.1,1.9
		C-1348.7,206.8-1348.6,207.7-1348.8,208.7z M-1364.5,211.4c-0.2,0.6-0.5,1.1-0.8,1.7c-0.3,0.5-0.6,1-1,1.5c-0.4,0.5-0.7,1-1.1,1.5
		l-5.3,6.8h-5.1l5.6-7.1c-0.2,0.1-0.5,0.1-0.7,0.1c-0.2,0-0.5,0.1-0.7,0.1c-0.9,0-1.8-0.2-2.5-0.5c-0.7-0.3-1.3-0.8-1.8-1.4
		c-0.5-0.6-0.8-1.3-1-2.1c-0.2-0.8-0.2-1.6-0.1-2.5c0.1-1,0.4-2,1-2.8c0.5-0.8,1.1-1.5,1.9-2.1c0.7-0.6,1.6-1.1,2.5-1.4
		c0.9-0.3,1.9-0.5,3-0.5c1,0,2,0.2,2.8,0.5c0.9,0.3,1.6,0.8,2.2,1.4c0.6,0.6,1,1.3,1.3,2.1c0.3,0.8,0.3,1.8,0.2,2.8
		C-1364.2,210.2-1364.3,210.9-1364.5,211.4z M-1368.9,207.4c-0.5-0.6-1.3-0.9-2.2-0.9c-1,0-1.8,0.3-2.4,0.9
		c-0.7,0.6-1.1,1.3-1.2,2.2c-0.1,0.9,0.1,1.6,0.6,2.2c0.5,0.6,1.2,0.9,2.2,0.9c1,0,1.8-0.3,2.4-0.9s1.1-1.3,1.2-2.2
		C-1368.2,208.8-1368.3,208-1368.9,207.4z M-1389.5,222.9l2.1-15.1l-4.5,3.5l-2-2.7l7.2-5.5h3.9l-2.8,19.8H-1389.5z M-1396.3,211.4
		c-0.2,0.6-0.5,1.1-0.8,1.7c-0.3,0.5-0.6,1-1,1.5c-0.4,0.5-0.7,1-1.1,1.5l-5.3,6.8h-5.1l5.6-7.1c-0.2,0.1-0.5,0.1-0.7,0.1
		c-0.2,0-0.5,0.1-0.7,0.1c-0.9,0-1.8-0.2-2.5-0.5c-0.7-0.3-1.3-0.8-1.8-1.4c-0.5-0.6-0.8-1.3-1-2.1c-0.2-0.8-0.2-1.6-0.1-2.5
		c0.1-1,0.4-2,1-2.8c0.5-0.8,1.1-1.5,1.9-2.1c0.7-0.6,1.6-1.1,2.5-1.4c0.9-0.3,1.9-0.5,3-0.5c1,0,2,0.2,2.8,0.5
		c0.9,0.3,1.6,0.8,2.2,1.4c0.6,0.6,1,1.3,1.3,2.1c0.3,0.8,0.3,1.8,0.2,2.8C-1395.9,210.2-1396.1,210.9-1396.3,211.4z M-1400.6,207.4
		c-0.5-0.6-1.3-0.9-2.2-0.9c-1,0-1.8,0.3-2.4,0.9c-0.7,0.6-1.1,1.3-1.2,2.2c-0.1,0.9,0.1,1.6,0.6,2.2c0.5,0.6,1.2,0.9,2.2,0.9
		c1,0,1.8-0.3,2.4-0.9s1.1-1.3,1.2-2.2C-1399.9,208.8-1400.1,208-1400.6,207.4z M-1419.6,217.6l0.5-3.4h6.9l-0.5,3.4H-1419.6z
		 M-1421.2,210.9c-0.7,0.8-1.6,1.3-2.7,1.6v0.1c1.2,0.3,2,0.9,2.5,1.7c0.5,0.8,0.7,1.9,0.5,3.1c-0.1,1-0.4,1.8-0.9,2.5
		c-0.5,0.7-1.1,1.3-1.8,1.8c-0.7,0.5-1.5,0.8-2.4,1.1c-0.9,0.2-1.8,0.4-2.7,0.4c-0.9,0-1.8-0.1-2.6-0.4c-0.8-0.2-1.5-0.6-2.1-1.1
		c-0.6-0.5-1-1.1-1.3-1.8c-0.3-0.7-0.4-1.6-0.2-2.5c0.2-1.2,0.6-2.3,1.4-3.1c0.8-0.8,1.8-1.4,3-1.7v-0.1c-1-0.3-1.8-0.9-2.3-1.6
		c-0.5-0.8-0.6-1.7-0.5-2.8c0.1-0.9,0.4-1.7,0.9-2.4c0.4-0.7,1-1.2,1.7-1.7c0.7-0.5,1.4-0.8,2.3-1c0.8-0.2,1.7-0.3,2.6-0.3
		c0.9,0,1.8,0.1,2.5,0.3c0.8,0.2,1.4,0.6,2,1c0.5,0.5,0.9,1,1.2,1.7c0.3,0.7,0.3,1.5,0.2,2.4
		C-1420.1,209.2-1420.5,210.2-1421.2,210.9z M-1430.5,216.8c-0.1,0.7,0.1,1.3,0.5,1.8c0.4,0.5,1.1,0.7,1.9,0.7
		c0.8,0,1.5-0.2,2.1-0.7c0.6-0.5,0.9-1.1,1-1.8c0.1-0.7-0.1-1.3-0.5-1.8c-0.4-0.5-1.1-0.7-1.9-0.7s-1.5,0.2-2.1,0.7
		C-1430.1,215.5-1430.4,216.1-1430.5,216.8z M-1424.6,207.2c-0.4-0.4-1-0.6-1.7-0.6s-1.3,0.2-1.8,0.6c-0.5,0.4-0.8,0.9-0.9,1.5
		c-0.1,0.6,0.1,1.1,0.4,1.6c0.4,0.4,1,0.6,1.7,0.6c0.7,0,1.3-0.2,1.8-0.6c0.5-0.4,0.8-1,0.9-1.6
		C-1424.1,208.1-1424.3,207.6-1424.6,207.2z M-1437,210.9c-0.7,0.8-1.6,1.3-2.7,1.6v0.1c1.2,0.3,2,0.9,2.5,1.7
		c0.5,0.8,0.7,1.9,0.5,3.1c-0.1,1-0.4,1.8-0.9,2.5c-0.5,0.7-1.1,1.3-1.8,1.8c-0.7,0.5-1.5,0.8-2.4,1.1c-0.9,0.2-1.8,0.4-2.7,0.4
		c-0.9,0-1.8-0.1-2.6-0.4c-0.8-0.2-1.5-0.6-2.1-1.1c-0.6-0.5-1-1.1-1.3-1.8c-0.3-0.7-0.4-1.6-0.2-2.5c0.2-1.2,0.6-2.3,1.4-3.1
		c0.8-0.8,1.8-1.4,3-1.7v-0.1c-1-0.3-1.8-0.9-2.3-1.6c-0.5-0.8-0.6-1.7-0.5-2.8c0.1-0.9,0.4-1.7,0.9-2.4c0.4-0.7,1-1.2,1.7-1.7
		c0.7-0.5,1.4-0.8,2.3-1c0.8-0.2,1.7-0.3,2.6-0.3c0.9,0,1.8,0.1,2.5,0.3c0.8,0.2,1.4,0.6,2,1c0.5,0.5,0.9,1,1.2,1.7
		c0.3,0.7,0.3,1.5,0.2,2.4C-1435.9,209.2-1436.4,210.2-1437,210.9z M-1446.4,216.8c-0.1,0.7,0.1,1.3,0.5,1.8
		c0.4,0.5,1.1,0.7,1.9,0.7c0.8,0,1.5-0.2,2.1-0.7c0.6-0.5,0.9-1.1,1-1.8c0.1-0.7-0.1-1.3-0.5-1.8c-0.4-0.5-1.1-0.7-1.9-0.7
		s-1.5,0.2-2.1,0.7C-1446,215.5-1446.3,216.1-1446.4,216.8z M-1440.5,207.2c-0.4-0.4-1-0.6-1.7-0.6c-0.7,0-1.3,0.2-1.8,0.6
		c-0.5,0.4-0.8,0.9-0.9,1.5c-0.1,0.6,0.1,1.1,0.4,1.6c0.4,0.4,1,0.6,1.7,0.6c0.7,0,1.3-0.2,1.8-0.6c0.5-0.4,0.8-1,0.9-1.6
		C-1440,208.1-1440.1,207.6-1440.5,207.2z M-1452.9,210.9c-0.7,0.8-1.6,1.3-2.7,1.6v0.1c1.2,0.3,2,0.9,2.5,1.7
		c0.5,0.8,0.7,1.9,0.5,3.1c-0.1,1-0.4,1.8-0.9,2.5c-0.5,0.7-1.1,1.3-1.8,1.8c-0.7,0.5-1.5,0.8-2.4,1.1c-0.9,0.2-1.8,0.4-2.7,0.4
		c-0.9,0-1.8-0.1-2.6-0.4c-0.8-0.2-1.5-0.6-2.1-1.1c-0.6-0.5-1-1.1-1.3-1.8c-0.3-0.7-0.4-1.6-0.2-2.5c0.2-1.2,0.6-2.3,1.4-3.1
		c0.8-0.8,1.8-1.4,3-1.7v-0.1c-1-0.3-1.8-0.9-2.3-1.6c-0.5-0.8-0.6-1.7-0.5-2.8c0.1-0.9,0.4-1.7,0.9-2.4c0.4-0.7,1-1.2,1.7-1.7
		c0.7-0.5,1.4-0.8,2.3-1c0.8-0.2,1.7-0.3,2.6-0.3c0.9,0,1.8,0.1,2.5,0.3c0.8,0.2,1.4,0.6,2,1c0.5,0.5,0.9,1,1.2,1.7
		c0.3,0.7,0.3,1.5,0.2,2.4C-1451.8,209.2-1452.2,210.2-1452.9,210.9z M-1462.3,216.8c-0.1,0.7,0.1,1.3,0.5,1.8
		c0.4,0.5,1.1,0.7,1.9,0.7c0.8,0,1.5-0.2,2.1-0.7c0.6-0.5,0.9-1.1,1-1.8c0.1-0.7-0.1-1.3-0.5-1.8c-0.4-0.5-1.1-0.7-1.9-0.7
		s-1.5,0.2-2.1,0.7C-1461.9,215.5-1462.2,216.1-1462.3,216.8z M-1456.4,207.2c-0.4-0.4-1-0.6-1.7-0.6c-0.7,0-1.3,0.2-1.8,0.6
		c-0.5,0.4-0.8,0.9-0.9,1.5c-0.1,0.6,0.1,1.1,0.4,1.6c0.4,0.4,1,0.6,1.7,0.6c0.7,0,1.3-0.2,1.8-0.6c0.5-0.4,0.8-1,0.9-1.6
		C-1455.9,208.1-1456,207.6-1456.4,207.2z M-1474.8,217.6l0.5-3.4h6.9l-0.5,3.4H-1474.8z M-1475.9,216.5c-0.4,1.2-0.9,2.3-1.6,3.3
		c-0.7,1-1.6,1.8-2.6,2.4c-1,0.6-2.3,0.9-3.8,0.9c-1.5,0-2.6-0.3-3.5-0.9c-0.9-0.6-1.5-1.4-1.9-2.4c-0.4-1-0.7-2.1-0.7-3.3
		c0-1.2,0-2.4,0.2-3.6c0.2-1.2,0.4-2.4,0.8-3.6c0.4-1.2,0.9-2.3,1.6-3.3c0.7-1,1.6-1.8,2.6-2.4c1-0.6,2.3-0.9,3.8-0.9
		c1.5,0,2.6,0.3,3.5,0.9c0.9,0.6,1.5,1.4,1.9,2.4c0.4,1,0.6,2.1,0.7,3.3c0,1.2,0,2.4-0.2,3.6
		C-1475.2,214.1-1475.5,215.3-1475.9,216.5z M-1479.2,209c-0.1-0.7-0.4-1.2-0.7-1.7c-0.4-0.5-0.9-0.7-1.7-0.7
		c-0.8,0-1.4,0.2-1.9,0.7c-0.5,0.5-0.9,1-1.2,1.7c-0.3,0.7-0.5,1.4-0.7,2.1c-0.2,0.7-0.3,1.4-0.3,1.9c-0.1,0.5-0.1,1.1-0.2,1.9
		c-0.1,0.7,0,1.4,0.1,2.1c0.1,0.7,0.3,1.2,0.7,1.7c0.4,0.5,0.9,0.7,1.7,0.7c0.7,0,1.4-0.2,1.9-0.7c0.5-0.5,0.9-1,1.2-1.7
		c0.3-0.7,0.5-1.4,0.7-2.1c0.1-0.7,0.3-1.4,0.3-1.9c0.1-0.5,0.1-1.1,0.2-1.9C-1479,210.3-1479,209.6-1479.2,209z M-1491.8,216.5
		c-0.4,1.2-0.9,2.3-1.6,3.3c-0.7,1-1.6,1.8-2.6,2.4c-1,0.6-2.3,0.9-3.8,0.9s-2.6-0.3-3.5-0.9c-0.9-0.6-1.5-1.4-1.9-2.4
		c-0.4-1-0.7-2.1-0.7-3.3c0-1.2,0-2.4,0.2-3.6c0.2-1.2,0.4-2.4,0.8-3.6c0.4-1.2,0.9-2.3,1.6-3.3c0.7-1,1.6-1.8,2.6-2.4
		c1-0.6,2.3-0.9,3.8-0.9s2.6,0.3,3.5,0.9c0.9,0.6,1.5,1.4,1.9,2.4c0.4,1,0.6,2.1,0.7,3.3c0,1.2,0,2.4-0.2,3.6
		C-1491.1,214.1-1491.4,215.3-1491.8,216.5z M-1495,209c-0.1-0.7-0.3-1.2-0.7-1.7c-0.4-0.5-0.9-0.7-1.7-0.7c-0.8,0-1.4,0.2-1.9,0.7
		c-0.5,0.5-0.9,1-1.2,1.7c-0.3,0.7-0.5,1.4-0.7,2.1c-0.1,0.7-0.3,1.4-0.3,1.9c-0.1,0.5-0.1,1.1-0.2,1.9s0,1.4,0.1,2.1
		c0.1,0.7,0.3,1.2,0.7,1.7c0.4,0.5,0.9,0.7,1.7,0.7c0.7,0,1.4-0.2,1.9-0.7c0.5-0.5,0.9-1,1.2-1.7c0.3-0.7,0.5-1.4,0.7-2.1
		c0.1-0.7,0.3-1.4,0.3-1.9c0.1-0.5,0.1-1.1,0.2-1.9C-1494.9,210.3-1494.9,209.6-1495,209z M-1507.4,218.9h-2.5l-0.5,4h-4l0.5-4h-8.7
		l0.5-3.5l9.8-12.3h4.6l-1.7,12.3h2.5L-1507.4,218.9z M-1512.6,208.5l-5.3,6.8h4.5L-1512.6,208.5L-1512.6,208.5z M-1533.8,226
		L-1533.8,226c-4.2-1.2-8.1-6.5-10.6-10.7c-2.5-4.2-5.4-10.1-4.5-14.3c0.3-1.5,4.6-3.2,4.6-3.2c0.4-0.2,0.9-0.2,1.3-0.1
		c0.5,0.1,0.9,0.4,1.1,0.9c0.2,0.5,1.9,5.2,2.1,5.8c0.2,0.6,0,1.3-0.6,1.9c-0.3,0.3-1.3,1.4-1.8,1.9c0.2,0.6,0.9,2.1,2.3,4.4
		c1.4,2.4,2.4,3.6,2.8,4.1c0.7-0.2,2-0.6,2.5-0.7c0.5-0.1,0.9-0.1,1.3,0c0.3,0.1,0.5,0.2,0.7,0.4c0.4,0.4,3.8,4.2,4.1,4.5
		c0.5,0.6,0.5,1.7-0.4,2.5C-1528.9,223.4-1532.4,226.3-1533.8,226z"/>
</g>
</svg>
