<svg xmlns="http://www.w3.org/2000/svg" xmlns:xlink="http://www.w3.org/1999/xlink" preserveAspectRatio="xMidYMid" width="60.91" height="56.407" viewBox="0 0 60.91 56.407">
  <defs>
    <style>
      .cls-1 {
        fill: gold;
      }

      .cls-1, .cls-2, .cls-3, .cls-4 {
        fill-rule: evenodd;
      }

      .cls-2 {
        fill: #3d3d3d;
      }

      .cls-3 {
        fill: #d1b209;
      }

      .cls-4 {
        fill: #5a5858;
      }
    </style>
  </defs>
  <g>
    <path d="M11.726,0.360 L44.741,0.360 C45.915,0.360 46.866,1.311 46.866,2.484 L46.866,54.251 C46.866,55.424 45.915,56.375 44.741,56.375 L2.122,56.375 C0.949,56.375 -0.002,55.424 -0.002,54.251 L-0.002,10.529 L11.726,0.360 Z" class="cls-1"/>
    <path d="M11.771,-0.005 L11.771,8.516 C11.771,9.690 10.820,10.641 9.647,10.641 L0.048,10.641 L11.771,-0.005 Z" class="cls-2"/>
    <path d="M17.848,29.365 L17.848,26.365 L36.816,26.365 L36.816,29.365 L17.848,29.365 ZM13.025,18.407 L36.775,18.407 L36.775,21.417 L13.025,21.417 L13.025,18.407 ZM36.785,35.323 L12.952,35.323 L12.952,32.542 L36.785,32.542 L36.785,35.323 ZM36.766,43.317 L10.861,43.317 L10.861,40.300 L36.766,40.300 L36.766,43.317 Z" class="cls-3"/>
    <path d="M44.866,12.352 L58.902,12.352 C60.007,12.352 60.902,13.248 60.902,14.352 L60.902,54.407 C60.902,55.511 60.007,56.407 58.902,56.407 L44.866,56.407 C43.762,56.407 42.866,55.511 42.866,54.407 L42.866,14.352 C42.866,13.248 43.762,12.352 44.866,12.352 Z" class="cls-2"/>
    <path d="M46.548,49.599 L46.548,47.188 L56.721,47.188 L56.721,49.599 L46.548,49.599 ZM46.548,21.677 L56.721,21.677 L56.721,24.247 L46.548,24.247 L46.548,21.677 ZM46.548,17.518 L56.721,17.518 L56.721,19.902 L46.548,19.902 L46.548,17.518 Z" class="cls-4"/>
  </g>
</svg>
