<svg xmlns="http://www.w3.org/2000/svg" xmlns:xlink="http://www.w3.org/1999/xlink" preserveAspectRatio="xMidYMid" width="187.56" height="107.09" viewBox="0 0 187.56 107.09">
  <defs>
    <style>
      .cls-1 {
        fill: #e9e9e9;
      }

      .cls-1, .cls-10, .cls-11, .cls-12, .cls-5, .cls-7, .cls-8, .cls-9 {
        fill-rule: evenodd;
      }

      .cls-2 {
        fill: #ffee91;
      }

      .cls-3 {
        fill: #d8c55d;
      }

      .cls-4 {
        fill: #a7942b;
      }

      .cls-5 {
        fill: #b39f30;
      }

      .cls-6 {
        fill: #8a791d;
      }

      .cls-7 {
        fill: #fff;
      }

      .cls-8 {
        fill: #000;
      }

      .cls-9 {
        fill: #ebc86b;
      }

      .cls-10 {
        fill: #b59237;
      }

      .cls-11 {
        fill: #a17f25;
      }

      .cls-12 {
        fill: #dcbb64;
      }
    </style>
  </defs>
  <g>
    <path d="M94.402,96.188 C145.851,96.188 187.559,98.629 187.559,101.641 C187.559,104.652 145.851,107.094 94.402,107.094 C42.954,107.094 1.246,104.652 1.246,101.641 C1.246,98.629 42.954,96.188 94.402,96.188 Z" class="cls-1"/>
    <g>
      <rect x="28.34" width="124.97" height="10.84" class="cls-2"/>
      <rect x="35.28" y="11" width="112" height="87" class="cls-3"/>
      <rect x="44.31" y="17.03" width="94.03" height="80.88" class="cls-4"/>
      <path d="M44.434,26.125 L44.434,22.031 L138.340,22.031 L138.340,26.125 L44.434,26.125 ZM138.323,35.939 L44.436,35.939 L44.436,31.876 L138.323,31.876 L138.323,35.939 ZM138.323,45.042 L44.436,45.042 L44.436,40.980 L138.323,40.980 L138.323,45.042 ZM138.323,53.958 L44.436,53.958 L44.436,50.020 L138.323,50.020 L138.323,53.958 ZM138.323,63.999 L44.436,63.999 L44.436,59.874 L138.323,59.874 L138.323,63.999 ZM138.323,74.017 L44.436,74.017 L44.436,69.954 L138.323,69.954 L138.323,74.017 ZM138.323,82.995 L44.436,82.995 L44.436,78.995 L138.323,78.995 L138.323,82.995 ZM138.323,93.036 L44.436,93.036 L44.436,88.911 L138.323,88.911 L138.323,93.036 Z" class="cls-5"/>
      <rect x="83.68" y="96.03" width="14.47" height="2.13" class="cls-6"/>
    </g>
    <g>
      <path d="M2.353,34.001 C2.353,34.001 18.260,36.974 21.555,38.929 C24.850,40.884 25.158,41.931 26.405,45.133 C27.653,48.336 39.100,90.786 39.100,90.786 L69.691,84.377 L71.238,89.828 L35.856,98.974 L20.646,46.887 C20.646,46.887 20.780,44.247 15.191,42.492 C9.602,40.737 1.671,39.216 1.671,39.216 C1.671,39.216 -0.392,38.313 0.051,36.206 C0.482,34.160 2.353,34.001 2.353,34.001 Z" class="cls-7"/>
      <path d="M31.981,103.469 C27.899,103.469 24.590,100.153 24.590,96.062 C24.590,91.972 27.899,88.656 31.981,88.656 C36.062,88.656 39.371,91.972 39.371,96.062 C39.371,100.153 36.062,103.469 31.981,103.469 ZM32.090,92.469 C30.174,92.469 28.621,94.022 28.621,95.938 C28.621,97.853 30.174,99.406 32.090,99.406 C34.006,99.406 35.559,97.853 35.559,95.938 C35.559,94.022 34.006,92.469 32.090,92.469 Z" class="cls-8"/>
    </g>
    <g>
      <path d="M30.815,62.462 L70.532,49.551 L80.771,80.706 L39.896,92.195 L30.815,62.462 Z" class="cls-9"/>
      <path d="M70.005,49.369 L75.193,50.743 L83.971,76.528 L80.061,81.863 L70.005,49.369 Z" class="cls-10"/>
      <path d="M47.174,59.714 L56.029,56.738 L58.427,63.540 L49.684,66.738 L47.174,59.714 Z" class="cls-11"/>
      <path d="M42.860,87.994 L39.908,79.431 L50.889,75.646 L53.841,84.209 L42.860,87.994 ZM50.363,76.732 L41.004,79.959 L43.392,86.886 L52.751,83.660 L50.363,76.732 ZM50.061,81.496 L48.531,82.023 L47.915,80.236 L46.871,80.596 L48.119,78.477 L50.478,79.367 L49.449,79.721 L50.061,81.496 ZM45.779,82.972 L44.192,83.519 L43.576,81.732 L42.532,82.091 L43.895,79.933 L46.196,80.842 L45.167,81.197 L45.779,82.972 ZM50.747,83.535 L44.828,85.576 L44.522,84.689 L50.442,82.648 L50.747,83.535 Z" class="cls-12"/>
    </g>
    <g>
      <path d="M24.487,40.815 L49.249,31.746 L56.657,55.642 L31.319,63.100 L24.487,40.815 Z" class="cls-9"/>
      <path d="M48.845,31.684 L52.284,33.154 L59.643,54.042 L56.877,56.258 L48.845,31.684 Z" class="cls-10"/>
      <path d="M31.406,38.279 L37.162,36.275 L38.943,41.588 L33.647,43.203 L31.406,38.279 Z" class="cls-11"/>
    </g>
    <path d="M33.177,63.734 L31.326,57.327 L38.212,54.494 L40.063,60.901 L33.177,63.734 ZM37.882,55.307 L32.013,57.721 L33.511,62.905 L39.380,60.491 L37.882,55.307 ZM37.693,58.872 L36.734,59.266 L36.347,57.929 L35.693,58.198 L36.475,56.613 L37.954,57.278 L37.309,57.544 L37.693,58.872 ZM35.008,59.976 L34.012,60.386 L33.626,59.048 L32.972,59.318 L33.827,57.702 L35.269,58.383 L34.624,58.648 L35.008,59.976 ZM38.123,60.398 L34.411,61.925 L34.220,61.261 L37.932,59.734 L38.123,60.398 Z" class="cls-12"/>
    <path d="M31.890,67.329 L56.850,58.272 L57.398,59.240 L32.241,68.520 L31.890,67.329 Z" class="cls-10"/>
  </g>
</svg>
