<?xml version="1.0" encoding="utf-8"?>
<!-- Generator: Adobe Illustrator 19.0.0, SVG Export Plug-In . SVG Version: 6.00 Build 0)  -->
<svg version="1.1" id="图层_1" xmlns="http://www.w3.org/2000/svg" xmlns:xlink="http://www.w3.org/1999/xlink" x="0px" y="0px"
	 viewBox="-119 142.4 71.3 56.7" style="enable-background:new -119 142.4 71.3 56.7;" xml:space="preserve">
<style type="text/css">
	.st0{fill:#FFD700;}
	.st1{fill:#E6C200;}
	.st2{fill:#E7C300;}
	.st3{fill:#E5C30A;}
	.st4{fill:#D2B207;}
	.st5{fill:#3D3D3D;}
	.st6{fill:#D1B209;}
</style>
<g>
	<path class="st0" d="M-118.1,163.4h33.9v35.7h-33.9V163.4z"/>
	<path class="st1" d="M-84.7,163.7l14.2-7.9l0.1,35l-14.4,8"/>
	<path class="st2" d="M-118.1,163.4l17.8-7.6l29.9,0l-14.2,8L-118.1,163.4z"/>
	<path class="st3" d="M-118.1,171.2h33.4v0.8h-33.4V171.2z"/>
	<path class="st4" d="M-84.7,171.2l13.6-8.5v0.8l-13.6,8.5V171.2z"/>
	<path class="st5" d="M-107.1,166.1h11.8c0.9,0,1.7,0.8,1.7,1.7c0,0.9-0.8,1.7-1.7,1.7h-11.8c-0.9,0-1.7-0.8-1.7-1.7
		C-108.8,166.8-108,166.1-107.1,166.1z"/>
	<path class="st6" d="M-104.2,188.1h5.1v5.1h-5.1V188.1z"/>
	<path class="st5" d="M-57.2,196.2c-5.4,2.8-12.6,4-15.8-2c-3.1-6-1-12.9-1.8-14.4c-0.8-1.5-2.8-3.6-4.5-6.1
		c-2.7-5.2,1.8-6.9,1.8-6.9l0.5-0.3l-9.8-16l-0.6-0.5l-3.2-5.4c0,0,1.1-1.1,1.1-1.5c0-0.4,1.3-0.6,1.3-0.6s0.4,0.1,0.9,0.1
		c0.4,0,0.8-0.2,0.8-0.2l2.5,5.8l-0.2,1.2l10.2,15.5l2.9-1.4c0.7,1.2,2.1,3.2,3,3.5c0.9,0.3,1.9-0.1,2.8-0.8
		c0.9-0.7,1.6-1.2,2.2-1.6c0.6-0.5,1.7-0.4,1.7,0.5c0,0.8-0.5,1.4,1.6,5.5c2.1,4.1,6.4,1.6,10.6,9.7
		C-44.8,188.2-51.8,193.4-57.2,196.2z M-65.2,171.6c-1-1.8-3.2-2.5-5-1.6s-2.5,3.2-1.6,5c1,1.8,3.2,2.5,5,1.6
		C-65,175.6-64.3,173.4-65.2,171.6z M-82.7,147.8c-0.2,0.1-0.4,0-0.5-0.2l-0.4-0.7c-0.1-0.2,0-0.4,0.2-0.5l0.2-0.1
		c0.2-0.1,0.4,0,0.5,0.2l0.4,0.7c0.1,0.2,0,0.4-0.2,0.5L-82.7,147.8z M-83.8,145.9c-0.2,0.1-0.4,0-0.5-0.2l-0.4-0.7
		c-0.1-0.2,0-0.4,0.2-0.5l0.2-0.1c0.2-0.1,0.4,0,0.5,0.2l0.4,0.7c0.1,0.2,0,0.4-0.2,0.5L-83.8,145.9z M-84.8,143.9
		c-0.2,0.1-0.4,0-0.5-0.2l-0.4-0.7c-0.1-0.2,0-0.4,0.2-0.5l0.2-0.1c0.2-0.1,0.4,0,0.5,0.2l0.4,0.7c0.1,0.2,0,0.4-0.2,0.5
		L-84.8,143.9z M-90.2,145.5l0.4,0.7c0.1,0.2,0,0.4-0.2,0.5l-0.2,0.1c-0.2,0.1-0.4,0-0.5-0.2l-0.4-0.7c-0.1-0.2,0-0.4,0.2-0.5
		l0.2-0.1C-90.5,145.2-90.3,145.3-90.2,145.5z M-89.6,147.3c0.2-0.1,0.4,0,0.5,0.2l0.4,0.7c0.1,0.2,0,0.4-0.2,0.5l-0.2,0.1
		c-0.2,0.1-0.4,0-0.5-0.2l-0.4-0.7c-0.1-0.2,0-0.4,0.2-0.5L-89.6,147.3z M-88.6,149.2c0.2-0.1,0.4,0,0.5,0.2l0.4,0.7
		c0.1,0.2,0,0.4-0.2,0.5l-0.2,0.1c-0.2,0.1-0.4,0-0.5-0.2l-0.4-0.7c-0.1-0.2,0-0.4,0.2-0.5L-88.6,149.2z"/>
</g>
</svg>
