<?xml version="1.0" encoding="utf-8"?>
<!-- Generator: Adobe Illustrator 19.0.0, SVG Export Plug-In . SVG Version: 6.00 Build 0)  -->
<svg version="1.1" id="图层_1" xmlns="http://www.w3.org/2000/svg" xmlns:xlink="http://www.w3.org/1999/xlink" x="0px" y="0px"
	 viewBox="-1618 159.2 108.2 108" style="enable-background:new -1618 159.2 108.2 108;" xml:space="preserve">
<style type="text/css">
	.st0{fill:#161616;}
</style>
<path class="st0" d="M-1545.2,229.2c0,10.3-8.4,18.6-18.7,18.6s-18.7-8.3-18.7-18.6c0-8.1,5.2-15,12.5-17.5v-25.2c0-3.3,2.7-6,6-6h0
	c3.3,0,6,2.7,6,6v3.9h5.4c1.3,0,2.3,1.2,2.3,2.5s-1,2.5-2.3,2.5h-5.4v5h5.4c1.3,0,2.3,1.2,2.3,2.5c0,1.3-1,2.5-2.3,2.5h-5.4v6.1
	C-1550.6,214-1545.2,220.9-1545.2,229.2z"/>
<g>
	<path class="st0" d="M-1532.5,162.2c10.8,0,19.7,8.8,19.7,19.7v62.6c0,10.9-8.8,19.7-19.7,19.7h-62.8c-10.8,0-19.7-8.8-19.7-19.7
		v-62.6c0-10.9,8.8-19.7,19.7-19.7H-1532.5 M-1532.5,159.2h-62.8c-12.5,0-22.7,10.2-22.7,22.7v62.6c0,12.5,10.2,22.7,22.7,22.7h62.8
		c12.5,0,22.7-10.2,22.7-22.7v-62.6C-1509.8,169.4-1520,159.2-1532.5,159.2L-1532.5,159.2z"/>
</g>
</svg>
