<svg xmlns="http://www.w3.org/2000/svg" xmlns:xlink="http://www.w3.org/1999/xlink" preserveAspectRatio="xMidYMid" width="81.5" height="55.062" viewBox="0 0 81.5 55.062">
  <defs>
    <style>
      .cls-1 {
        fill: gold;
      }

      .cls-1, .cls-2, .cls-3 {
        fill-rule: evenodd;
      }

      .cls-2 {
        fill: #3d3d3d;
      }

      .cls-3 {
        fill: #e6c200;
      }
    </style>
  </defs>
  <g>
    <g>
      <path d="M9.858,16.137 L66.817,16.137 C67.922,16.137 68.817,17.033 68.817,18.137 L68.817,45.264 C68.817,46.369 67.922,47.264 66.817,47.264 L9.858,47.264 C8.754,47.264 7.858,46.369 7.858,45.264 L7.858,18.137 C7.858,17.033 8.754,16.137 9.858,16.137 Z" class="cls-1"/>
      <path d="M69.749,55.073 L69.749,50.723 L75.576,50.723 L75.576,55.073 L69.749,55.073 ZM1.523,50.730 L7.352,50.730 L7.352,55.062 L1.523,55.062 L1.523,50.730 Z" class="cls-2"/>
      <path d="M11.216,39.020 L65.872,39.020 C66.976,39.020 67.872,39.915 67.872,41.020 L67.872,48.835 C67.872,49.940 66.976,50.835 65.872,50.835 L11.216,50.835 C10.112,50.835 9.216,49.940 9.216,48.835 L9.216,41.020 C9.216,39.915 10.112,39.020 11.216,39.020 Z" class="cls-3"/>
      <path d="M2.001,26.031 L6.861,26.031 C7.966,26.031 8.861,26.926 8.861,28.031 L8.861,50.410 C8.861,51.515 7.966,52.410 6.861,52.410 L2.001,52.410 C0.896,52.410 0.001,51.515 0.001,50.410 L0.001,28.031 C0.001,26.926 0.896,26.031 2.001,26.031 Z" class="cls-3"/>
      <path d="M70.056,26.051 L74.916,26.051 C76.021,26.051 76.916,26.946 76.916,28.051 L76.916,50.410 C76.916,51.515 76.021,52.410 74.916,52.410 L70.056,52.410 C68.951,52.410 68.056,51.515 68.056,50.410 L68.056,28.051 C68.056,26.946 68.951,26.051 70.056,26.051 Z" class="cls-3"/>
    </g>
    <path d="M72.969,11.039 L72.969,51.161 L77.864,54.975 L65.450,54.975 L70.969,51.102 L70.969,11.039 L61.979,11.039 L64.897,0.002 L78.177,0.002 L81.515,11.039 L72.969,11.039 Z" class="cls-2"/>
  </g>
</svg>
