<?xml version="1.0" encoding="utf-8"?>
<!-- Generator: Adobe Illustrator 19.0.0, SVG Export Plug-In . SVG Version: 6.00 Build 0)  -->
<svg version="1.1" id="图层_1" xmlns="http://www.w3.org/2000/svg" xmlns:xlink="http://www.w3.org/1999/xlink" x="0px" y="0px"
	 viewBox="-62 111 186.3 120.1" style="enable-background:new -62 111 186.3 120.1;" xml:space="preserve">
<style type="text/css">
	.st0{fill:#FFD552;}
	.st1{fill:#E4E4E4;}
	.st2{fill:#004F84;}
	.st3{fill:#F0F0F0;}
	.st4{fill:#272447;}
	.st5{fill:#0061A1;}
	.st6{fill:#101F4B;}
	.st7{fill:#00C8D4;}
</style>
<g>
	<g>
		<path class="st0" d="M56.1,192.7c0,15.2-12.3,22.7-27.5,22.7l0,0c-15.2,0-27.5-7.5-27.5-22.7v-44.6c0-15.2,12.3-27.5,27.5-27.5
			l0,0c15.2,0,27.5,12.3,27.5,27.5V192.7z"/>
	</g>
	<g>
		<rect x="16.1" y="171.7" class="st1" width="25" height="29.2"/>
	</g>
	<g>
		<rect x="9.2" y="189.9" class="st2" width="38.8" height="25.2"/>
	</g>
	<g>
		<path class="st3" d="M53.5,148.8c-2-2.5-4.9,0.7-4.9,0.7c0-24.2-20.1-21.3-20.1-21.3s-20.1-3-20.1,21.3c0,0-2.9-3.2-4.9-0.7
			c-2,2.5,0.7,17.5,4.9,14.4c0,0,3.9,20.7,20.1,20.7c16.2,0,20.1-20.7,20.1-20.7C52.8,166.2,55.5,151.3,53.5,148.8z"/>
	</g>
	<g>
		<path class="st4" d="M45.7,186.3c0,0-5.3,23.8-17.1,23.8c-11.9,0-17.1-23.8-17.1-23.8c-9,0-20.6,7.2-20.6,7.2l-8.5,27.1
			c0,0,20.6,9.4,48.2,9.4c26.3,0,46.7-9.4,46.7-9.4L68,195.2C68,195.2,55.7,186.3,45.7,186.3z"/>
	</g>
	<g>
		<path class="st5" d="M28.6,190.2c0,0-8-2.2-17.2,10.1l-2.2-13.7c0,0,3.7-6.2,6.5-6.1C15.7,180.5,23.5,188,28.6,190.2z"/>
	</g>
	<g>
		<path class="st5" d="M28.6,190.2c0,0,8-2.2,17.2,10.1l2.2-13.7c0,0-3.7-6.2-6.5-6.1C41.5,180.5,33.7,188,28.6,190.2z"/>
	</g>
	<g>
		<path class="st0" d="M42.5,136c0,0-24.3,18.8-34,13.5c0,0-6.1-23.4,21.6-23.4c17.1,0,21.2,18.4,18.6,23.4
			C48.7,149.5,42.9,143.9,42.5,136z"/>
	</g>
	<g>
		<g>
			<path class="st6" d="M0.8,151.5c-0.2-0.7-5.7-17.4,2.5-28.8c4.8-6.8,13.3-10.2,25.3-10.2c11.9,0,20.4,3.4,25.3,10.2
				c8.2,11.5,2.8,28.1,2.5,28.8l-3.3-1.1c0.1-0.2,5.1-15.7-2.1-25.7c-4.2-5.8-11.7-8.7-22.4-8.7c-10.7,0-18.3,2.9-22.4,8.7
				c-7.2,10-2.1,25.6-2.1,25.7L0.8,151.5z"/>
		</g>
		<g>
			<path class="st6" d="M41.8,174.1c-1,0-2,0-3-0.1c-0.8,0-1.6-0.1-2.3-0.1v-1.7c0.7,0,1.5,0,2.4,0.1c4.1,0.1,9.2,0.3,12-2.5
				c1.6-1.5,2.4-3.8,2.4-7h1.7c0,3.6-1,6.3-2.9,8.2C49.5,173.6,45.5,174.1,41.8,174.1z"/>
		</g>
		<g>
			<path class="st7" d="M8.3,164.2c0,0.5-0.3,0.9-0.8,0.9l-8.5,0.7c-0.5,0-0.9-0.3-0.9-0.8l-1.4-16.5c0-0.5,0.3-0.9,0.8-0.9l8.5-0.7
				c0.5,0,0.9,0.3,0.9,0.8L8.3,164.2z"/>
		</g>
		<g>
			<path class="st7" d="M48.9,164.2c0,0.5,0.3,0.9,0.8,0.9l8.5,0.7c0.5,0,0.9-0.3,0.9-0.8l1.4-16.5c0-0.5-0.3-0.9-0.8-0.9l-8.5-0.7
				c-0.5,0-0.9,0.3-0.9,0.8L48.9,164.2z"/>
		</g>
		<g>
			<path class="st7" d="M38.3,174.4c0,0.5-0.4,0.9-0.9,0.9h-4.1c-0.5,0-0.9-0.4-0.9-0.9v-2.6c0-0.5,0.4-0.9,0.9-0.9h4.1
				c0.5,0,0.9,0.4,0.9,0.9V174.4z"/>
		</g>
	</g>
</g>
</svg>
