<?xml version="1.0" encoding="utf-8"?>
<!-- Generator: Adobe Illustrator 19.0.0, SVG Export Plug-In . SVG Version: 6.00 Build 0)  -->
<svg version="1.1" id="图层_1" xmlns="http://www.w3.org/2000/svg" xmlns:xlink="http://www.w3.org/1999/xlink" x="0px" y="0px"
	 viewBox="-1618 159.2 108.2 108" style="enable-background:new -1618 159.2 108.2 108;" xml:space="preserve">
<style type="text/css">
	.st0{fill:#161616;}
</style>
<g>
	<path class="st0" d="M-1532.5,162.2c10.8,0,19.7,8.8,19.7,19.7v62.6c0,10.9-8.8,19.7-19.7,19.7h-62.8c-10.8,0-19.7-8.8-19.7-19.7
		v-62.6c0-10.9,8.8-19.7,19.7-19.7H-1532.5 M-1532.5,159.2h-62.8c-12.5,0-22.7,10.2-22.7,22.7v62.6c0,12.5,10.2,22.7,22.7,22.7h62.8
		c12.5,0,22.7-10.2,22.7-22.7v-62.6C-1509.8,169.4-1520,159.2-1532.5,159.2L-1532.5,159.2z"/>
</g>
<path class="st0" d="M-1563.3,241.9c-0.2,0-0.4,0.1-0.6,0.1c-0.2,0-0.4,0-0.6-0.1c-0.9-0.2-22.7-4.2-22.7-36v-8.6
	c0-1,0.4-1.9,1.1-2.5c0.6-0.6,1.4-0.9,2.3-0.9c0.1,0,0.1,0,0.2,0c0.1,0,0.6,0,1.4,0c1.4,0,5.7-0.1,8.3-0.7c3.9-1,8-5.4,8.1-5.5
	c0.6-0.4,1.2-0.6,1.9-0.6c0.7,0,1.3,0.2,1.9,0.6c1.1,0.8,5,4.7,8.3,5.5c2.6,0.7,6.8,0.7,8.2,0.7c0.8,0,1.4,0,1.4,0
	c0.1,0,0.2,0,0.2,0c0.8,0,1.7,0.3,2.3,0.9c0.7,0.7,1.1,1.6,1.1,2.5v8.6C-1540.4,237.7-1562.4,241.7-1563.3,241.9z"/>
</svg>
