<?xml version="1.0" encoding="utf-8"?>
<!-- Generator: Adobe Illustrator 19.0.0, SVG Export Plug-In . SVG Version: 6.00 Build 0)  -->
<svg version="1.1" id="图层_1" xmlns="http://www.w3.org/2000/svg" xmlns:xlink="http://www.w3.org/1999/xlink" x="0px" y="0px"
	 viewBox="-1618 159.2 108.2 108" style="enable-background:new -1618 159.2 108.2 108;" xml:space="preserve">
<style type="text/css">
	.st0{fill:#161616;}
</style>
<g>
	<path class="st0" d="M-1532.5,162.2c10.8,0,19.7,8.8,19.7,19.7v62.6c0,10.9-8.8,19.7-19.7,19.7h-62.8c-10.8,0-19.7-8.8-19.7-19.7
		v-62.6c0-10.9,8.8-19.7,19.7-19.7H-1532.5 M-1532.5,159.2h-62.8c-12.5,0-22.7,10.2-22.7,22.7v62.6c0,12.5,10.2,22.7,22.7,22.7h62.8
		c12.5,0,22.7-10.2,22.7-22.7v-62.6C-1509.8,169.4-1520,159.2-1532.5,159.2L-1532.5,159.2z"/>
</g>
<g>
	<path class="st0" d="M-1530.8,195.8h-47.4c-1,0-1.8,0.8-1.8,1.8v5.2l-12.4,0l-8.6,11.4c0,0-0.1,11.7,0,15.9
		c0.1,0.9,0.7,1.7,2.2,1.7c1.4,0,3.2,0,5.1,0c0-0.1,0.1-0.1,0.1-0.1c1.3-3,4.2-5.1,7.6-5.1c0,0,0.1,0,0.1,0c1-0.1,1.9,0.1,2.6,0.5
		c2.3,0.8,4.1,2.6,5,4.8h22.5c1-4,4.7-7,9.1-7s8,3,9.1,7h6.6c1,0,1.8-0.8,1.8-1.8v-32.4C-1529,196.6-1529.8,195.8-1530.8,195.8z
		 M-1582.9,218c0,1.3-1.1,1.9-1.1,1.9s-11.9,0-12.9,0c-0.9,0-0.8-2.1-0.8-2.1l7.7-10.9h7.1C-1582.9,206.9-1582.9,216.6-1582.9,218z"
		/>
	<circle class="st0" cx="-1585.7" cy="235" r="5.7"/>
	<ellipse class="st0" cx="-1546.6" cy="234.3" rx="6.4" ry="6.4"/>
</g>
</svg>
