<?xml version="1.0" encoding="utf-8"?>
<!-- Generator: Adobe Illustrator 19.0.0, SVG Export Plug-In . SVG Version: 6.00 Build 0)  -->
<svg version="1.1" id="图层_1" xmlns="http://www.w3.org/2000/svg" xmlns:xlink="http://www.w3.org/1999/xlink" x="0px" y="0px"
	 viewBox="-1579 167 186.3 92.2" style="enable-background:new -1579 167 186.3 92.2;" xml:space="preserve">
<style type="text/css">
	.st0{fill:#E9E9E9;}
	.st1{fill:#FFE552;}
	.st2{fill:#FFFFFF;}
	.st3{fill:#303030;}
	.st4{opacity:0.15;}
	.st5{fill:#2A2424;}
</style>
<path class="st0" d="M-1485.8,248.3c51.4,0,93.2,2.4,93.2,5.5c0,3-41.7,5.5-93.2,5.5c-51.4,0-93.2-2.4-93.2-5.5
	C-1579,250.7-1537.3,248.3-1485.8,248.3z"/>
<path class="st1" d="M-1415,236c-0.1,1.8-1.7,3.3-4.8,3.3c-2.7,0-7,0-10.7-0.1c-2.2-6.3-8.2-10.9-15.2-10.9c-7.1,0-13.1,4.6-15.3,11
	h-45.4c-2.2-6.4-8.2-11-15.3-11s-13.1,4.6-15.3,11h-14.4c-1.9,0-3.5-1.6-3.5-3.5v-65.3c0-1.9,1.6-3.5,3.5-3.5h90.8
	c1.9,0,3.5,1.6,3.5,3.5v11.8l24,0l18,22.1C-1415,204.4-1414.9,227.9-1415,236z M-1422.4,210.7l-15-20.7h-13.5c0,0,0,18.5,0,21.1
	c0,2.6,2.2,3.7,2.2,3.7s22.8,0,24.6,0C-1422.2,214.8-1422.4,210.7-1422.4,210.7z"/>
<path class="st2" d="M-1456.4,223h-98.5v-3.8h97.8v-37.4h3.4V223L-1456.4,223z"/>
<circle class="st3" cx="-1521.5" cy="244.6" r="12.9"/>
<circle class="st2" cx="-1521.4" cy="244.6" r="6.6"/>
<circle class="st3" cx="-1445.4" cy="244.6" r="12.9"/>
<circle class="st2" cx="-1445.4" cy="244.6" r="6.6"/>
<g class="st4">
	<g id="XMLID_1288_">
		<g id="XMLID_1292_">
			<g id="XMLID_1293_">
				<path id="XMLID_1319_" class="st5" d="M-1477.4,200.6c-1,0.9-2.2,1-3.4,0.6c-0.5-0.2-0.9,0.1-1.3,0.4c-0.1,0.1-0.2,0.3-0.3,0.4
					c0-1.3-0.1-1.5-1.2-1.8c-0.9-0.3-1.8-0.7-2.2-1.7c-0.4,1.2-0.2,2.8,0.9,3.6c1.4,1,1.6,2.5,0.6,3.9c-0.7,0.9-1.6,1.5-2.8,1.4
					c-1.2-0.2-1.8-1-2.2-2.1c-0.3-0.7-0.3-1.5-0.3-2.2c0-6.5,0-12.9,0-19.4c0-2.6-1.9-4.6-4.6-4.6c-5.3,0-10.6,0-15.8,0
					c-2.8,0-4.7,1.9-4.7,4.7c0,3.8,0,7.6,0,11.5c0,4,0,8,0,12c0,2.5,2.1,4.6,4.6,4.6c6,0,12,0,18,0c1.3,0,2.6-0.2,3.9-0.4
					c2.7-0.7,4.6-2.2,5.3-4.9c0.2-0.5,0.3-1,0.5-1.6c0.3-0.9,0.9-1.3,1.7-1.3c0.2,0,0.4,0,0.6,0
					C-1478.7,203.6-1477.2,202-1477.4,200.6z M-1494.2,209.3L-1494.2,209.3c-5.3,0-10.7,0-16,0c-1.3,0-2.1-0.9-2.1-2.5
					c0-1.4,0-2.7,0-4c0-6.2,0-12.4,0-18.6c0-0.1,0-0.2,0-0.3c0-1.5,0.6-2.2,2.1-2.3c0.2,0,0.4,0,0.6,0c4.9,0,9.8,0,14.7,0
					c0.2,0,0.4,0,0.6,0.1c-1.6,0.2-3.4,0.4-5,0.6c-2.2,0.3-4.5,0.5-6.8,0.8c-0.9,0.2-1.8,0.3-2.8,0.4c-0.9,0.1-1.2,0.5-1.2,1.4
					c0,7.1,0,14,0,21.1c0,1.1,0.5,1.7,1.6,1.8c2.3,0.3,4.7,0.5,6.9,0.8c2.3,0.3,4.6,0.5,6.9,0.8
					C-1494.5,209.2-1494.4,209.2-1494.2,209.3L-1494.2,209.3z M-1504.8,189.5c0,0.9-0.8,1.7-1.7,1.7s-1.7-0.8-1.7-1.7
					s0.8-1.7,1.7-1.7S-1504.8,188.6-1504.8,189.5z"/>
			</g>
		</g>
		<g id="XMLID_1289_">
			<g id="XMLID_1290_">
				<path id="XMLID_1291_" class="st5" d="M-1494.2,209.3L-1494.2,209.3c0.2-0.1,0.3-0.1,0.5-0.1
					C-1493.9,209.3-1494.1,209.3-1494.2,209.3z"/>
			</g>
		</g>
	</g>
</g>
</svg>
