<?xml version="1.0" encoding="utf-8"?>
<!-- Generator: Adobe Illustrator 19.0.0, SVG Export Plug-In . SVG Version: 6.00 Build 0)  -->
<svg version="1.1" id="图层_1" xmlns="http://www.w3.org/2000/svg" xmlns:xlink="http://www.w3.org/1999/xlink" x="0px" y="0px"
	 viewBox="-1618.5 184.9 153.1 56.7" style="enable-background:new -1618.5 184.9 153.1 56.7;" xml:space="preserve">
<style type="text/css">
	.st0{fill:#191919;}
</style>
<g id="XMLID_1336_">
	<g id="XMLID_1337_">
		<g id="XMLID_1338_">
			<g id="XMLID_1354_">
				<g id="XMLID_1355_">
					<path id="XMLID_1356_" class="st0" d="M-1563.6,201.4h5.9c-0.7,11.9-3.1,19.4-5.9,26.3h2.5c2.1-5.2,3.8-10.8,4.8-17.7h14.9
						c1.2,0,2,0.8,2,2v11.5c0,1-0.8,2-2,2h-7.9l-1.4,2.2h9.2c2.4,0,4.3-2,4.3-4.3v-11.5c0-2.4-2-4.3-4.3-4.3h-14.6
						c0.2-2.1,0.4-3.9,0.6-6.3h18.2V199h-26.5L-1563.6,201.4L-1563.6,201.4z"/>
				</g>
			</g>
			<g id="XMLID_1351_">
				<g id="XMLID_1352_">
					<polygon id="XMLID_1353_" class="st0" points="-1527.1,197.9 -1529.3,197.9 -1529.3,204.5 -1532.2,204.5 -1532.1,204.5 
						-1530.1,200.5 -1532.4,200.5 -1535.8,206.8 -1535.8,206.8 -1535.8,206.8 -1535.8,206.8 -1535.8,206.8 -1529.3,206.8 
						-1529.3,215.2 -1535.8,217.9 -1535.8,220.3 -1529.3,217.7 -1529.3,227.6 -1527.1,227.6 -1527.1,216.7 -1524.8,215.8 
						-1524.8,213.3 -1527.1,214.2 -1527.1,206.8 -1524.8,206.8 -1524.8,204.5 -1527.1,204.5 					"/>
				</g>
			</g>
			<g id="XMLID_1348_">
				<g id="XMLID_1349_">
					<path id="XMLID_1350_" class="st0" d="M-1510.2,201.8h-9.7l2.3-4h-2.6l-3.2,6.3h4.3c-1.2,9.7-3.1,17.5-5.1,23.7h2.3
						c2.1-6.4,4-13.7,5-23.7h3.6c-0.8,9.7-2.6,17.4-4.4,23.7h2.4c1.9-6.4,3.6-13.6,4.3-23.7h0.8c1,0,1.9,0.8,1.9,1.9v17.8
						c0,1-0.8,1.9-1.9,1.9h-1.8l-1.4,2.3h3.1c2.3,0,4.2-1.9,4.2-4.2V206C-1506,203.8-1507.9,201.8-1510.2,201.8z"/>
				</g>
			</g>
			<g id="XMLID_1344_">
				<g id="XMLID_1345_">
					<path id="XMLID_1346_" class="st0" d="M-1495,200.6h10.7c1.5,0,2.4,0.9,3.2,2.2l4.4,6.9l1.9-1.2l-4.4-6.9c-1.3-2-2.4-3.2-5-3.2
						h-10.8c-2.6,0-3.8,1.3-5,3.2l-4.4,6.8l1.9,1.2l4.4-6.9C-1497.3,201.5-1496.4,200.6-1495,200.6z"/>
				</g>
			</g>
			<g id="XMLID_1339_">
				<g id="XMLID_1340_">
					<path id="XMLID_1342_" class="st0" d="M-1499.1,224.4v-11.1c0-1,0.8-1.9,1.9-1.9h15.9c0.4,0,0.7,0.3,0.7,0.7v5.1
						c0,0.4-0.3,0.7-0.7,0.7h-10.2v2.2h10.2c1.6,0,2.9-1.4,2.9-2.9v-5.1c0-1.6-1.4-2.9-2.9-2.9h-15.9c-2.3,0-4.2,1.9-4.2,4.2v11.1
						c0,2.3,1.9,3.4,4.2,3.4h19.5l1.3-2.2h-20.7C-1498.2,225.4-1499.1,225.3-1499.1,224.4z"/>
				</g>
			</g>
		</g>
	</g>
</g>
<g id="XMLID_1288_">
	<g id="XMLID_1292_">
		<g id="XMLID_1293_">
			<path id="XMLID_1319_" class="st0" d="M-1566.6,218.5c-1.1,1-2.3,1.1-3.6,0.7c-0.6-0.2-1,0.1-1.4,0.5c-0.1,0.1-0.2,0.3-0.4,0.5
				c0-1.4-0.1-1.6-1.3-2c-1-0.4-2-0.7-2.4-1.9c-0.5,1.3-0.2,3.1,0.9,3.9c1.5,1.1,1.8,2.7,0.7,4.2c-0.7,0.9-1.8,1.6-3,1.5
				c-1.3-0.2-2-1.1-2.3-2.2c-0.3-0.7-0.4-1.6-0.4-2.4c0-7,0-14,0-21c0-2.8-2.1-5-5-5c-5.7,0-11.5,0-17.2,0c-3,0-5,2.1-5,5
				c0,4.1,0,8.2,0,12.4c0,4.3,0,8.7,0,13c0,2.7,2.2,5,5,5c6.5,0,13,0,19.5,0c1.4,0,2.8-0.2,4.2-0.5c2.9-0.7,5-2.4,5.8-5.3
				c0.2-0.6,0.4-1.1,0.6-1.7c0.3-0.9,0.9-1.4,1.9-1.4c0.2,0,0.5,0,0.7,0C-1568,221.7-1566.4,220-1566.6,218.5z M-1584.8,227.8
				L-1584.8,227.8c-5.8,0-11.6,0-17.4,0c-1.4,0-2.2-1-2.2-2.7c0-1.5,0-2.9,0-4.4c0-6.7,0-13.5,0-20.2c0-0.1,0-0.2,0-0.3
				c0-1.6,0.7-2.3,2.2-2.5c0.2,0,0.5,0,0.7,0c5.3,0,10.6,0,16,0c0.2,0,0.5,0,0.7,0.1c-1.8,0.2-3.6,0.5-5.4,0.7
				c-2.4,0.3-4.9,0.6-7.4,0.8c-0.9,0.2-2,0.3-3,0.5c-0.9,0.1-1.3,0.6-1.3,1.5c0,7.7,0,15.2,0,22.9c0,1.2,0.6,1.9,1.7,2
				c2.5,0.3,5,0.6,7.5,0.8c2.5,0.3,5,0.6,7.5,0.8C-1585.1,227.7-1585,227.7-1584.8,227.8L-1584.8,227.8z M-1596.3,206.5
				c0,1-0.8,1.9-1.9,1.9c-1,0-1.9-0.8-1.9-1.9c0-1,0.8-1.9,1.9-1.9C-1597.1,204.6-1596.3,205.4-1596.3,206.5z"/>
		</g>
	</g>
	<g id="XMLID_1289_">
		<g id="XMLID_1290_">
			<path id="XMLID_1291_" class="st0" d="M-1584.8,227.8L-1584.8,227.8c0.2-0.1,0.3-0.1,0.6-0.1
				C-1584.5,227.9-1584.7,227.9-1584.8,227.8z"/>
		</g>
	</g>
</g>
</svg>
