<?xml version="1.0" encoding="utf-8"?>
<!-- Generator: Adobe Illustrator 19.0.0, SVG Export Plug-In . SVG Version: 6.00 Build 0)  -->
<svg version="1.1" id="图层_1" xmlns="http://www.w3.org/2000/svg" xmlns:xlink="http://www.w3.org/1999/xlink" x="0px" y="0px"
	 viewBox="-116 140.2 78.8 62" style="enable-background:new -116 140.2 78.8 62;" xml:space="preserve">
<style type="text/css">
	.st0{fill:none;enable-background:new    ;}
	.st1{fill:#3D3D3D;}
	.st2{fill:#FFD700;}
	.st3{fill:#E6C200;}
</style>
<path class="st0" d="z"/>
<g>
	<rect x="-100" y="190.5" class="st1" width="20.4" height="1.9"/>
	<path class="st2" d="M-69.6,161.2h-40v4c0,0-0.7,8.9,15,8.9c15.7,0,14.2,0,14.2,0S-69.6,175.1-69.6,161.2z"/>
	<path class="st2" d="M-89.6,161.2l4.7-19c0.1-0.5-0.3-0.9-0.8-0.8c-1.3,0.3-3.5,0.8-6.1,0.9c-4.7,0.1-7.7-0.9-7.7-0.9
		s-2.5,3.2-5,5.4c-1,0.9-4.2,2.7-4.2,2.7l-0.9,11.7H-89.6z"/>
	<g>
		<path class="st3" d="M-89.8,180.8c3.8,0,7.3-2,9.1-5.3l11.7-21c0.7-1.2,2-2,3.4-2h8.7v-1h-8.7c-1.8,0-3.4,1-4.3,2.5l-11.7,21
			c-1.7,3-4.8,4.8-8.2,4.8c-3.4,0-6.5-1.9-8.1-4.9l-0.5-1l-1.3-0.2l0.8,1.6C-97,178.7-93.6,180.8-89.8,180.8z"/>
	</g>
	<path class="st1" d="M-65.5,152c0,0.7,0.6,1.3,1.3,1.3h7c0.7,0,1.3-0.6,1.3-1.3l0,0c0-0.7-0.6-1.3-1.3-1.3h-7
		C-65,150.7-65.5,151.3-65.5,152L-65.5,152z"/>
	<g>
		<path class="st1" d="M-99.1,189.7c0.1-0.2,2-8.5,8.5-8.5c6.4,0,9.3,8.4,9.4,8.5l1-0.3c0-0.1-2.8-9.2-10.3-9.2
			c-7.4,0-9.4,9.1-9.4,9.2L-99.1,189.7z"/>
	</g>
	<circle class="st1" cx="-90.2" cy="180.5" r="2"/>
	<g>
		<rect x="-80.5" y="184.8" class="st2" width="0.8" height="13.5"/>
		
			<rect x="-80.5" y="184.8" transform="matrix(-0.7071 -0.7071 0.7071 -0.7071 -272.0941 270.3348)" class="st2" width="0.8" height="13.5"/>
		<rect x="-86.8" y="191.1" class="st2" width="13.5" height="0.8"/>
		
			<rect x="-80.5" y="184.8" transform="matrix(-0.7069 0.7073 -0.7073 -0.7069 -1.1962 383.5358)" class="st2" width="0.8" height="13.5"/>
		<g>
			<path class="st2" d="M-80.1,185.6c3.3,0,5.9,2.6,5.9,5.9c0,3.3-2.6,5.9-5.9,5.9c-3.3,0-5.9-2.6-5.9-5.9
				C-86,188.3-83.3,185.6-80.1,185.6L-80.1,185.6z M-80.1,183.4c-4.5,0-8.2,3.7-8.2,8.2c0,4.5,3.7,8.2,8.2,8.2
				c4.5,0,8.2-3.7,8.2-8.2C-71.9,187-75.6,183.4-80.1,183.4L-80.1,183.4z"/>
		</g>
		<circle class="st1" cx="-80.1" cy="191.5" r="2.5"/>
	</g>
	<g>
		<rect x="-99.7" y="184.8" class="st2" width="0.8" height="13.5"/>
		
			<rect x="-99.7" y="184.8" transform="matrix(-0.7073 -0.7069 0.7069 -0.7073 -304.9788 256.7591)" class="st2" width="0.8" height="13.5"/>
		<rect x="-106.1" y="191.1" class="st2" width="13.5" height="0.8"/>
		
			<rect x="-99.7" y="184.8" transform="matrix(-0.7071 0.7071 -0.7071 -0.7071 -34.1344 397.1801)" class="st2" width="0.8" height="13.5"/>
		<g>
			<path class="st2" d="M-99.3,185.6c3.3,0,5.9,2.6,5.9,5.9c0,3.3-2.6,5.9-5.9,5.9c-3.3,0-5.9-2.6-5.9-5.9
				C-105.2,188.3-102.6,185.6-99.3,185.6L-99.3,185.6z M-99.3,183.4c-4.5,0-8.2,3.7-8.2,8.2c0,4.5,3.7,8.2,8.2,8.2
				c4.5,0,8.2-3.7,8.2-8.2C-91.2,187-94.8,183.4-99.3,183.4L-99.3,183.4z"/>
		</g>
		<circle class="st1" cx="-99.3" cy="191.5" r="2.5"/>
	</g>
	<path class="st3" d="M-96.2,159.9c0.6,0.4,0.3,1.3-0.4,1.3h-13l0.7-10L-96.2,159.9z"/>
	<path class="st3" d="M-100.5,142.7l6.4,15.9c0.2,0.6-0.5,1.1-0.9,0.7l-12.4-10.5c1-0.6,2.4-1.5,3-2
		C-103,145.5-101.5,143.8-100.5,142.7z"/>
	<path class="st3" d="M-91.2,158.5c-0.1,0.6-1,0.6-1.1,0.1l-5-16.6c1.3,0.2,3.3,0.4,5.6,0.4c1.4,0,2.8-0.2,3.9-0.4L-91.2,158.5z"/>
	<circle class="st1" cx="-92.4" cy="161.8" r="1.2"/>
</g>
<path class="st1" d="M-42.2,175l-2.4-2.2L-42,196h-14.3h-0.2h-14.3l2.7-23.2l-2.4,2.2l-5-4.2l5.8-6.7c0,0,1.8-1.7,5.3-1.5
	c2.6,0.1,0.4,0.2,2.3,0.2c1.3,3.6,5.9,3.3,5.9,3.3v0.1c1,0,4.6-0.3,5.7-3.4c1.9,0-0.3-0.1,2.3-0.2c3.5-0.2,5.3,1.5,5.3,1.5l5.8,6.7
	L-42.2,175z"/>
</svg>
