<?xml version="1.0" encoding="utf-8"?>
<!-- Generator: Adobe Illustrator 19.0.0, SVG Export Plug-In . SVG Version: 6.00 Build 0)  -->
<svg version="1.1" id="图层_1" xmlns="http://www.w3.org/2000/svg" xmlns:xlink="http://www.w3.org/1999/xlink" x="0px" y="0px"
	 viewBox="-1618 159.2 108.2 108" style="enable-background:new -1618 159.2 108.2 108;" xml:space="preserve">
<style type="text/css">
	.st0{fill:#161616;}
</style>
<g>
	<path class="st0" d="M-1532.5,162.2c10.8,0,19.7,8.8,19.7,19.7v62.6c0,10.9-8.8,19.7-19.7,19.7h-62.8c-10.8,0-19.7-8.8-19.7-19.7
		v-62.6c0-10.9,8.8-19.7,19.7-19.7H-1532.5 M-1532.5,159.2h-62.8c-12.5,0-22.7,10.2-22.7,22.7v62.6c0,12.5,10.2,22.7,22.7,22.7h62.8
		c12.5,0,22.7-10.2,22.7-22.7v-62.6C-1509.8,169.4-1520,159.2-1532.5,159.2L-1532.5,159.2z"/>
</g>
<path class="st0" d="M-1544.2,179.8h-38c-2.2,0-4,1.8-4,4v59c0,2.2,1.8,4,4,4h38c2.2,0,4-1.8,4-4v-59
	C-1540.2,181.6-1542,179.8-1544.2,179.8z M-1563.5,240.3c-2,0-3.6-1.6-3.6-3.6c0-2,1.6-3.6,3.6-3.6c2,0,3.6,1.6,3.6,3.6
	C-1559.9,238.7-1561.5,240.3-1563.5,240.3z M-1559.5,186.5h-8.3c-0.4,0-0.8-0.6-0.8-1s0.4-1,0.8-1h8.3c0.4,0,0.8,0.5,0.8,1
	S-1559.1,186.5-1559.5,186.5z"/>
</svg>
